<svg width="1128" height="212" viewBox="0 0 1128 212" fill="none" xmlns="http://www.w3.org/2000/svg">
<path d="M2.07736 210.001C1.68955 208.144 0.963839 206.288 0.962679 204.431C0.921359 139.106 0.943881 73.7819 0.970919 8.4575C0.974032 0.940964 1.01035 0.817177 8.37473 0.808754C42.8593 0.769318 77.3439 0.775108 111.828 0.860565C114.965 0.868332 118.1 1.55754 121.726 2.40645C129.5 5.25938 136.884 7.37486 144.028 10.1162C147.978 11.6316 151.524 14.1955 155.196 16.2365C155.14 16.1862 155.263 16.099 154.982 16.2262C154.442 17.0977 154.183 17.842 153.882 19.0215C153.952 29.7994 154.063 40.1422 154.133 50.9048C153.891 53.6672 156.282 57.4899 152.075 57.7731C144.2 58.303 136.264 57.9255 128.484 57.9255C126.635 61.5463 120.865 62.8829 117.474 61.1387C114.753 59.7395 111.316 57.5592 108.888 58.2291C104.179 59.5285 99.7552 58.4924 95.2229 58.5741C89.9504 58.6691 84.6398 58.3025 79.413 58.8181C74.2406 59.3283 69.1621 60.749 64.0158 61.6109C63.2259 61.7432 62.2921 61.0182 61.4253 60.6885C59.0724 59.7937 56.7849 58.4144 54.3557 58.0866C43.771 56.6585 33.1667 61.1618 22.5069 58.1458C21.6959 57.9163 19.8175 59.032 19.5069 59.9042C18.4529 62.8634 22.9182 68.6147 26.1638 68.8707C26.1643 68.887 26.1366 68.8738 26.0956 69.2711C26.8344 70.6285 27.6144 71.5886 28.3971 72.6265C28.4 72.7043 28.2486 72.7407 28.3228 73.0243C28.729 73.4905 29.061 73.673 29.6545 74.0587C38.0019 87.7264 46.0881 101.191 54.0294 114.987C52.5197 119.66 55.3855 120.98 58.8361 122.132C59.0109 122.258 59.1308 122.672 59.0942 123.093C60.3884 127.134 59.1747 132.453 65.498 133.016C65.901 133.426 65.9992 133.728 65.9886 134.477C66.8757 138.661 67.7625 142.435 68.6493 146.208C71.0432 147.119 73.9096 148.749 74.0168 150.543C74.4343 157.54 80.9377 160.715 83.2125 166.459C83.6601 167.589 85.8435 168.032 87.2101 168.797C87.1939 168.801 87.1974 168.835 87.1359 169.23C85.5127 174.118 87.9965 177.563 90.5562 180.558C91.7189 181.919 94.4092 181.974 96.4065 182.621C96.602 180.748 96.7975 178.876 97.2636 176.725C97.9887 173.374 98.071 170.28 101.254 168.252C102.31 167.579 102.444 165.461 103.35 163.994C105.841 162.188 108.255 160.631 110.068 158.548C114.379 153.596 117.499 147.905 119.354 141.565C119.898 139.708 120.452 137.854 121.303 135.835C122.735 133.114 123.864 130.556 125.313 128.051C126.63 128.47 127.627 128.835 128.624 129.201C128.873 127.678 129.505 126.101 129.303 124.641C128.594 119.544 133.3 117.832 135.535 114.625C135.648 114.464 138.653 116.319 141.301 117.782C141.646 116.019 142.271 114.264 142.277 112.506C142.291 108.288 141.202 103.794 146.451 101.552C147.079 101.284 147.658 100.361 147.823 99.641C148.63 96.1128 149.289 92.5507 150 89.0003C150 89 150 88.9994 150.361 89.0437C154.852 89.9926 158.272 91.3999 155.944 97.1314C158.601 92.9031 162.89 90.2671 162.185 84.4868C161.704 80.5354 162.973 76.3704 163.459 72.3009C164.358 72.3098 165.256 72.3186 166.154 72.3275C166.433 75.5505 166.713 78.7735 166.615 82.0948C165.827 84.7956 165.415 87.3982 165.001 90.0004C165 90 165 90.0036 164.711 90.0469C164.113 90.4086 163.804 90.727 163.496 91.0454C163.997 91.3616 164.499 91.6778 165 91.9969C165 92 165.006 92.0008 165.005 92.3862C166.026 98.5898 170.786 103.54 175.76 103.996C179.175 104.309 182.587 104.664 186.001 105.383C186.109 107.767 186.239 110.713 189.015 109.247C192.927 107.182 194.703 109.303 197.124 111.499C199.299 113.471 201.774 115.697 204.744 112.127C205.245 111.525 206.992 111.96 208.163 111.916C208.202 113.298 208.747 114.967 208.164 115.999C207.212 117.686 205.206 118.781 204.262 120.471C203.646 121.574 203.677 124.355 204.177 124.563C209.582 126.817 206.537 130.229 205.509 133.237C204.5 136.188 203.08 138.997 202.036 141.937C201.3 144.01 200.892 146.2 200.33 148.364C198.345 147.454 197.071 146.869 195.855 146.311C194.973 149.658 195.127 154.132 193.242 155.293C187.331 158.932 185.151 163.74 186.051 170.606C183.176 170.606 180.826 170.606 178.27 170.606C181.078 174.743 180.306 177.568 177.094 179.766C174.058 179.504 171.329 178.474 170.419 179.345C168.055 181.607 166.49 184.705 164.236 188.014C164.251 188.048 164.746 189.128 165.177 190.068C161.829 191.068 158.271 191.211 155.989 192.99C149.942 197.705 142.569 199.257 135.927 202.488C135.219 202.833 134.318 202.808 133.5 202.898C129.631 203.326 125.265 202.724 121.983 204.336C111.456 209.503 100.031 209.405 89.0545 209.719C60.0831 210.547 31.0724 210 2.07736 210.001ZM108.808 171.18C107.61 171.653 106.413 172.126 105.216 172.599C105.644 173.249 106.072 173.9 106.5 174.55C107.46 173.555 108.419 172.56 108.808 171.18Z" fill="#566873"/>
<path d="M545.877 62.028C548.375 62.8776 550.873 63.7272 553.653 64.673C554.27 62.8672 554.842 61.1908 555.538 59.1482C563.033 59.1482 570.657 58.9809 578.259 59.3139C579.517 59.369 581.651 61.5579 581.723 62.8527C582.091 69.4899 582.201 76.1768 581.745 82.8011C581.622 84.5846 579.202 86.2099 577.132 88.785C577.12 88.7524 577.581 89.9205 577.937 91.1197C579.111 95.0786 581.196 99.0381 581.241 103.016C581.488 124.966 581.358 146.922 581.026 168.872C580.973 172.401 579.255 175.905 577.743 179.785C575.856 182.847 574.533 185.544 573.21 188.241C573.21 188.241 573.163 188.13 572.879 188.216C572.133 189.282 571.672 190.261 571.211 191.239C571.211 191.239 571.162 191.08 570.834 191.115C569.693 192.46 568.879 193.769 568.065 195.078C568.065 195.078 568.006 195.002 567.698 195.046C566.043 196.523 564.695 197.956 563.347 199.388C563.347 199.388 563.26 199.36 562.93 199.339C560.401 200.864 558.201 202.41 556.002 203.956C540.029 213.973 523.723 214.203 507.551 204.844C492.122 195.915 483.422 182.408 481.952 164.435C481.65 160.739 482.55 158.844 486.752 159.032C492.398 159.285 498.069 159.139 503.724 158.974C507.442 158.867 509.157 159.972 509.748 164.128C511.341 175.338 520.371 183.425 530.931 183.932C540.837 184.407 550.682 177.434 553.306 167.457C554.325 163.581 554.057 159.365 554.455 154.282C543.446 157.937 533.364 160.88 522.274 157.664C515.873 154.771 509.944 152.389 504.016 150.006C504.016 150.006 503.996 150.007 503.942 149.665C503.172 148.963 502.455 148.605 501.739 148.247C501.739 148.247 501.802 148.163 501.752 147.933C501.377 147.541 501.053 147.38 500.728 147.22C500.728 147.22 500.838 147.216 500.77 146.9C499.105 145.408 497.509 144.233 495.913 143.057C495.913 143.057 495.972 143.012 495.862 142.814C495.474 142.42 495.195 142.225 494.915 142.03C494.915 142.03 494.985 142.014 494.874 141.815C494.491 141.417 494.219 141.22 493.946 141.022C493.946 141.022 494.002 141.006 493.992 140.646C493.342 138.613 493.103 136.59 491.995 135.328C487.043 129.685 484.512 123.066 483.441 115.785C482.968 112.567 482.666 109.323 482.286 106.091C482.398 104.593 482.51 103.094 483.086 101.035C484.657 96.595 485.763 92.7161 486.869 88.8371C486.869 88.8371 486.895 88.9502 487.126 88.7954C487.524 88.0357 487.692 87.4308 487.86 86.8259C487.86 86.8259 487.879 86.9301 488.161 86.8171C490.545 83.3797 492.647 80.0552 494.749 76.7308C494.749 76.7308 494.834 76.8011 495.063 76.7514C495.466 76.3784 495.639 76.0551 495.812 75.7318C495.812 75.7318 495.855 75.8345 496.075 75.761C496.465 75.3662 496.635 75.0449 496.805 74.7236C496.805 74.7236 496.832 74.8321 497.128 74.7721C499.215 73.0389 501.005 71.3659 502.795 69.6928C502.795 69.6928 502.763 69.8527 503.098 69.851C504.222 69.1397 505.011 68.4299 505.799 67.7202C505.799 67.7202 505.815 67.6917 506.179 67.7915C511.434 65.9737 516.199 62.9778 521.246 62.3844C529.359 61.4307 537.658 62.0648 545.877 62.028ZM513.94 122.428C514.603 123.173 515.231 123.953 515.934 124.658C525.176 133.917 537.978 134.236 547.2 125.447C556.235 116.835 556.711 103.424 548.315 94.0082C541.008 85.8135 527.555 84.6773 518.295 91.4731C508.962 98.3225 507.001 110.698 513.94 122.428Z" fill="#566873"/>
<path d="M902.307 61.9096C904.788 62.751 907.269 63.5923 910.213 64.5905C910.676 59.2517 914.143 59.0519 918.238 59.2914C923.551 59.6019 928.892 59.533 934.218 59.4551C937.334 59.4096 938.743 60.5666 938.737 63.8224C938.681 94.1262 938.678 124.43 938.746 154.734C938.752 157.723 937.643 158.969 934.677 158.945C928.018 158.892 921.347 159.189 914.707 158.839C912.938 158.746 911.266 156.829 908.789 155.272C887.269 163.034 866.899 159.844 850.71 141.514C837.872 126.98 835.309 109.884 842.255 91.0907C842.769 90.4356 842.897 90.2119 842.982 89.9634C842.982 89.9634 843.004 89.997 843.231 89.8034C843.6 89.0204 843.741 88.4308 843.883 87.8413C843.883 87.8413 843.895 87.947 844.175 87.8256C846.306 84.4724 848.158 81.2405 850.009 78.0086C850.009 78.0086 850 78 850.346 77.9598C853.068 75.5127 855.443 73.1058 857.818 70.6989C857.818 70.6989 857.804 70.8237 858.155 70.8527C859.246 70.1475 859.987 69.4133 860.729 68.6791C860.729 68.6791 860.88 68.688 861.188 68.767C866.155 66.8775 870.736 64.6879 875.492 62.9883C884.275 59.8495 893.331 61.4184 902.307 61.9096ZM900.193 90.1137C893.885 86.4036 887.304 86.1545 880.517 88.5699C869.268 92.5726 863.339 105.244 867.383 116.631C871.428 128.02 884.688 134.561 895.616 130.37C914.17 123.253 915.645 101.012 900.193 90.1137Z" fill="#566873"/>
<path d="M310.102 158.687C308.975 158.705 307.848 158.723 306.25 158.2C305.177 151.751 304.126 145.849 304.056 139.935C303.834 121.049 303.977 102.158 303.977 83.2688C303.978 74.4495 303.972 65.6301 303.977 56.8108C303.979 51.0671 303.906 45.3214 304.038 39.5805C304.119 36.0653 305.267 33.8764 309.666 33.9009C327.292 33.9992 344.925 33.4518 362.547 33.7022C370.207 33.8111 378.075 33.4512 385.264 37.6556C388.426 39.5049 392.405 39.9574 396.219 41.3022C399.713 43.2746 403.002 44.9889 406.291 46.7033C406.291 46.7033 406.125 46.6684 406.155 47.0551C407.475 48.2711 408.764 49.1004 410.054 49.9296C410.054 49.9296 410.011 49.9933 410.026 50.3323C411.365 51.7671 412.689 52.863 414.013 53.9589C414.013 53.9589 414.011 53.9843 414.121 54.198C414.413 54.6802 414.656 54.8697 414.96 54.9803C414.96 54.9803 415.017 54.9869 415.016 55.3827C417.411 59.1509 419.808 62.5232 422.206 65.8956C422.206 65.8956 422.093 65.9275 422.08 66.2292C422.362 67.3521 422.657 68.1733 423.006 69.348C424.016 71.1441 424.974 72.5869 425.932 74.0296C425.932 74.0296 426 74.0433 426.002 74.4811C427.207 79.8963 428.409 84.8737 429.612 89.8512C429.729 90.6677 429.847 91.4841 429.665 92.9569C429.507 95.0383 429.648 96.4634 429.789 97.8884C429.813 98.695 429.837 99.5015 429.377 100.819C428.6 102.383 428.34 103.446 428.006 104.486C426.064 110.541 424.635 116.844 421.928 122.537C420.571 125.389 417.64 127.481 418.212 131.202C418.212 131.202 418.137 131.156 417.908 131.229C417.536 131.634 417.393 131.965 417.25 132.296C417.25 132.296 417.32 132.182 416.994 132.256C416.209 133.312 415.75 134.294 415.29 135.276C415.29 135.276 415.339 135.217 414.96 135.192C412.404 137.8 410.228 140.433 408.053 143.066C408.053 143.066 407.993 143.018 407.71 143.048C407.004 143.479 406.581 143.88 406.159 144.282C406.159 144.282 406.223 144.215 405.876 144.191C403.384 145.863 401.239 147.56 399.094 149.257C399.094 149.257 399.105 149.144 398.82 149.143C398.082 149.547 397.627 149.952 397.173 150.356C397.173 150.356 397.216 150.23 396.929 150.211C396.083 150.755 395.524 151.318 394.965 151.882C394.965 151.882 394.926 151.99 394.497 151.995C392.704 152.662 391.339 153.325 389.975 153.988C389.975 153.988 389.76 154.179 389.172 154.116C387.108 154.197 385.621 154.262 384.161 154.498C377.039 155.651 369.95 157.637 362.802 157.871C347.031 158.386 331.232 158.006 315.444 158.054C313.663 158.059 311.883 158.466 310.102 158.687ZM330.616 132.583C344.029 132.713 357.444 132.995 370.854 132.832C373.242 132.803 375.608 130.932 378.454 129.403C388.236 125.959 394.714 118.868 400.401 109.786C406.094 104.54 403.201 97.4479 404.087 91.9277C408.181 94.8814 412.394 97.921 417.429 101.554C418.399 98.654 419.126 96.2249 420.036 93.8665C420.529 92.5882 421.037 90.9939 422.054 90.2989C425.315 88.0721 425.818 85.0712 422.209 83.0229C417.262 80.2151 418.961 76.5595 419.824 72.8021C420.056 71.7906 420.508 70.8298 421.249 68.7568C418.995 70.3061 417.742 71.1676 415.949 72.4004C413.601 68.5925 411.499 64.9882 409.186 61.5242C408.233 60.0973 406.976 58.7746 405.601 57.7491C402.296 55.2851 397.755 53.7103 395.728 50.503C393.382 46.7916 391.434 45.0694 387.279 46.7545C386.794 45.9168 386.398 45.3906 386.162 44.8003C384.001 39.393 381.099 38.5845 375.99 41.2183C374.035 42.226 371.297 42.3966 369.071 42.0234C366.263 41.5525 364.175 40.8095 362.53 44.268C361.853 45.6897 359.127 46.7497 357.26 46.874C352.023 47.2227 346.748 46.9684 341.488 47.0088C336.198 47.0494 335.4 48.0972 335.998 54.7999C335.999 55.8636 336 56.9274 335.195 57.9943C333.465 58.327 331.735 58.6597 329.992 59.7879C330.123 61.7615 330.254 63.7351 330.58 66.5574C330.507 67.129 330.435 67.7007 330.104 68.9865C330.076 89.9928 330.048 110.999 330.616 132.583Z" fill="#566873"/>
<path d="M1025.03 65.9755C1039.92 73.5257 1049.54 85.4271 1050.49 102.123C1051.56 120.847 1050.73 139.678 1050.73 158.953C1042.15 158.953 1033.61 159.054 1025.08 158.757C1024.42 158.734 1023.34 155.924 1023.33 154.401C1023.2 139.758 1022.82 125.098 1023.39 110.475C1023.86 98.2439 1014.43 89.1397 1005.24 87.538C994.839 85.724 984.981 91.5431 980.023 102.903C979.527 104.142 979.476 104.968 979.425 105.794C979.392 122.538 979.36 139.282 978.843 156.654C976.237 157.525 974.122 157.881 971.994 157.989C966.712 158.257 961.425 158.412 956.139 158.613C955.648 158.657 955.157 158.7 954.257 158.283C953.24 156.544 952.631 155.267 952.021 153.989C951.978 130.281 951.936 106.573 952.265 82.0821C952.758 76.4861 952.839 71.6709 953.014 66.859C953.15 63.1106 954.237 60.653 958.932 60.8959C963.866 61.1512 968.846 60.3798 973.809 60.3259C974.808 60.315 976.575 61.3873 976.702 62.1687C977.453 66.798 980.071 65.9544 983.328 65.1387C988.59 63.8211 993.94 62.6487 999.322 62.083C1004.2 61.5705 1009.17 61.9504 1014.1 61.9369C1014.1 61.9369 1014.03 61.9528 1014.19 62.2535C1015.96 62.949 1017.58 63.3437 1019.2 63.7384C1019.2 63.7384 1019.13 63.6871 1019.23 64.0192C1021.23 64.8926 1023.13 65.4341 1025.03 65.9755Z" fill="#566873"/>
<path d="M1091.12 107C1091.14 114.664 1091 121.833 1091.24 128.991C1091.43 135.154 1093.34 136.968 1099.47 137.275C1104.62 137.532 1109.79 137.663 1114.95 137.638C1117.81 137.624 1119.49 138.548 1120.53 141.392C1122.56 146.971 1124.97 152.413 1127.52 158.641C1124.93 158.767 1123.04 158.939 1121.14 158.939C1108.98 158.943 1096.81 159.051 1084.65 158.851C1071.04 158.627 1063.21 150.446 1063.19 136.69C1063.17 121.529 1063.1 106.366 1063.34 91.2077C1063.4 87.2687 1062.2 85.5216 1058.28 86.1004C1053.46 86.8116 1052.24 84.2447 1052.32 80.0595C1052.42 75.0642 1052.45 70.0554 1052.18 65.0693C1051.99 61.4834 1053.18 59.6214 1056.92 59.9503C1062.23 60.4175 1063.86 57.9513 1063.46 52.839C1063.02 47.2065 1063.13 41.5103 1063.39 35.8592C1063.45 34.5874 1065.06 32.351 1066.01 32.3174C1074.13 32.0323 1082.27 32.1544 1091.09 32.1544C1091.09 39.7745 1091.3 47.04 1091 54.2841C1090.84 58.219 1092.14 59.9458 1096.03 59.4169C1101.54 58.6668 1104.56 61.1587 1106.37 66.2895C1108.63 72.6711 1111.47 78.8474 1114.41 85.9789C1106.44 85.9789 1099.1 85.9789 1091.12 85.9789C1091.12 93.3039 1091.12 99.9022 1091.12 107Z" fill="#566873"/>
<path d="M631.977 86C631.983 78.5033 632.137 71.5025 631.938 64.5117C631.837 60.9766 632.879 59.2502 636.655 59.2762C645.982 59.3404 655.312 59.2423 664.639 59.1331C667.198 59.1031 668.101 60.1139 668.096 62.7124C668.078 72.206 668.17 81.7026 668.427 91.1924C668.517 94.5295 667.176 95.5648 664.02 95.4878C659.196 95.3702 654.365 95.6226 649.538 95.6055C646.539 95.5949 645.492 96.9667 645.572 99.9049C645.738 106.065 645.792 112.235 645.626 118.394C645.536 121.709 647.006 122.849 650.058 122.822C655.866 122.772 661.674 122.808 667.968 122.808C667.968 134.96 667.968 146.653 667.968 158.89C656.746 158.89 645.631 159.011 634.529 158.676C633.565 158.647 631.926 155.62 631.901 153.966C631.735 142.808 631.95 131.646 631.983 120.484C632.017 109.156 631.984 97.8282 631.977 86Z" fill="#566873"/>
<path d="M442.969 73.0164C442.969 68.5429 442.969 64.5662 442.969 59.4367C451.83 59.4367 460.353 59.3158 468.858 59.6584C469.564 59.6869 470.695 62.8468 470.701 64.5549C470.792 91.6744 470.731 118.794 470.71 145.914C470.708 148.909 470.607 151.912 470.796 154.896C470.988 157.932 469.694 159.129 466.744 159.091C460.589 159.013 454.433 159.002 448.278 159.061C444.347 159.098 442.879 157.587 442.908 153.375C443.09 126.756 442.981 100.134 442.969 73.0164Z" fill="#566873"/>
<path d="M620.815 115C620.827 128.328 620.703 141.159 620.934 153.983C621.001 157.663 619.945 159.153 616.22 159.052C610.228 158.89 604.227 158.98 598.231 159.004C594.632 159.019 592.937 157.783 592.96 153.687C593.13 124.033 593.146 94.3775 592.984 64.7236C592.961 60.4337 594.606 59.1163 598.509 59.1957C604.004 59.3074 609.505 59.311 614.999 59.1787C619.139 59.079 620.868 60.5706 620.816 65.021C620.624 81.5118 620.786 98.0067 620.815 115Z" fill="#566873"/>
<path d="M779.926 97.9974C780.023 98.1372 780.119 98.277 779.856 98.7469C779.069 99.6938 778.18 100.405 778.284 100.914C779.913 108.872 780.974 117.051 783.658 124.652C785.278 129.237 789.421 132.95 792.54 136.969C793.185 137.801 794.317 138.255 795.788 139.273C797.033 136.587 798.087 134.313 799.509 131.247C793.955 131.542 790.544 130.126 790.948 124.621C790.96 124.453 790.439 124.245 790.167 124.056C790.246 123.506 790.325 122.956 790.651 121.94C790.899 121.475 791.005 121.028 791.005 121.028C791.228 119.872 791.45 118.716 792.102 117.058C792.644 116.168 792.757 115.78 792.871 115.392C792.88 114.784 792.889 114.177 793.417 113.284C796.724 112.97 798.409 112.247 797.534 108.805C797.156 107.316 797.857 105.552 798.145 103.316C802.559 107.87 800.034 112.066 798.91 115.877C797.791 119.67 797.198 122.875 799.16 126.715C800.799 129.92 801.396 133.764 801.924 137.402C802.504 141.397 802.476 145.48 802.713 149.525C803.181 149.572 803.649 149.618 804.116 149.665C804.763 148.645 805.41 147.624 805.659 147.232C807.399 147.545 808.629 147.765 809.858 147.986C808.945 150.126 808.031 152.266 806.811 154.888C805.215 155.706 803.926 156.042 801.537 156.664C801.084 156.839 799.61 157.806 798.067 157.93C792.415 158.384 786.739 158.558 781.072 158.838C780.6 158.891 780.128 158.944 779.193 158.724C778.529 158.234 778.292 158.072 777.841 157.666C774.252 155.353 772.833 152.626 772.852 148.418C772.901 137.682 769.27 128.363 762.107 119.997C758.813 116.15 756.332 110.746 758.458 104.827C758.782 103.926 758.108 101.772 757.441 101.548C751.089 99.4081 753.226 92.6058 750.196 88.5773C748.181 85.8994 747.762 82.0079 746.687 78.641C746.087 76.7603 744.91 74.7215 745.213 72.9643C745.885 69.0676 744.326 66.3906 741.931 63.7285C741.333 63.0632 741.394 61.8052 741.301 61.428C745.187 60.7959 748.585 60.2432 751.983 59.6906C752.744 59.5841 753.505 59.4777 754.804 59.8017C758.894 60.8213 762.447 61.4104 766 61.9998C766 61.9998 766 62.0007 766.053 62.3261C767.448 63.7458 768.789 64.84 770.131 65.9342C772.847 74.64 775.562 83.3457 777.989 92.602C774.356 96.6447 777.78 97.0277 779.926 97.9974ZM779.438 120.184C779.801 120.188 780.165 120.196 780.527 120.178C780.536 120.178 780.542 119.765 780.532 119.764C780.171 119.736 779.807 119.733 779.438 120.184Z" fill="#566873"/>
<path d="M722.068 59.3577C723.745 59.3146 725.421 59.2716 727.5 59.6515C727.18 61.1775 726.459 62.2805 726.158 62.7394C727.267 64.2235 728.686 65.2948 728.902 66.5703C729.536 70.3067 729.975 74.1235 729.988 77.9104C730.072 102.36 730.059 126.81 729.989 151.259C729.972 157.144 726.085 159.479 720.621 157.676C718.455 156.96 715.645 156.867 713.52 157.61C707.693 159.647 700.58 156.627 699.8 150.599C698.976 144.229 699.083 137.713 699.151 131.264C699.182 128.258 700.931 126.471 704.396 126.875C706.693 127.142 709.057 127.055 711.373 126.886C715.18 126.609 720.444 122.122 720.26 119.549C719.816 113.342 719.288 107.137 719.031 100.921C718.788 95.0429 718.616 94.7636 712.618 95.1953C710.81 95.269 709.003 95.3427 706.358 95.2093C702.97 94.88 700.42 94.7578 696.872 94.5878C698.71 93.3717 699.619 92.7709 700.226 92.369C699.766 90.0933 699.134 88.0521 698.976 85.9749C698.549 80.3644 698.335 74.738 698.014 69.1192C697.77 64.8517 700.398 61.998 704.715 61.9625C709.208 61.9255 713.716 62.1413 718.188 61.8237C719.533 61.7282 720.777 60.2192 722.068 59.3577Z" fill="#566873"/>
<path d="M810.086 147.702C808.629 147.765 807.4 147.545 805.66 147.232C805.411 147.624 804.764 148.644 804.117 149.665C803.649 149.618 803.181 149.572 802.713 149.525C802.476 145.48 802.504 141.397 801.924 137.402C801.396 133.764 800.799 129.92 799.161 126.714C797.198 122.875 797.792 119.67 798.911 115.876C800.034 112.066 802.559 107.87 798.145 103.316C797.858 105.552 797.156 107.316 797.535 108.805C798.409 112.247 796.725 112.97 793.558 113.001C798.152 96.2961 803.067 79.5718 808.209 62.9177C808.636 61.5349 810.567 59.6902 811.852 59.6479C820.61 59.3598 829.382 59.497 839.491 59.497C829.495 89.6184 819.905 118.518 810.086 147.702Z" fill="#566873"/>
<path d="M2.28906 210.314C31.0725 210 60.0832 210.547 89.0546 209.719C100.031 209.405 111.456 209.503 121.983 204.336C125.265 202.724 129.632 203.326 133.5 202.898C134.318 202.808 135.219 202.833 135.927 202.488C142.569 199.257 149.942 197.705 155.989 192.99C158.271 191.211 161.829 191.068 165.177 190.068C164.746 189.128 164.251 188.048 164.236 188.014C166.49 184.705 168.055 181.607 170.419 179.345C171.329 178.474 174.059 179.504 177.094 179.766C180.306 177.568 181.078 174.743 178.27 170.606C180.827 170.606 183.177 170.606 186.051 170.606C185.151 163.74 187.331 158.932 193.242 155.293C195.128 154.132 194.974 149.658 195.855 146.311C197.071 146.869 198.346 147.454 200.33 148.364C200.892 146.199 201.3 144.01 202.036 141.937C203.08 138.996 204.5 136.188 205.509 133.237C206.537 130.229 209.582 126.817 204.177 124.563C203.677 124.354 203.646 121.574 204.263 120.471C205.206 118.781 207.212 117.686 208.164 115.998C208.747 114.967 208.202 113.298 208.164 111.916C206.992 111.96 205.245 111.525 204.744 112.127C201.774 115.697 199.299 113.471 197.124 111.499C194.703 109.303 192.927 107.182 189.015 109.247C186.239 110.713 186.109 107.767 186.424 105.383C189.226 104.507 191.605 104.014 193.984 103.521C193.877 102.681 193.769 101.84 193.661 100.999C190.018 100.999 186.204 101.681 182.776 100.821C178.794 99.8225 175.151 97.4723 171.768 95.7007C174.583 96.1347 176.988 96.938 179.399 96.9564C189.958 97.037 200.519 96.8901 211.079 96.8257C211.079 96.8257 211.094 96.9367 211.256 97.3221C210.919 107.468 210.421 117.229 209.923 126.989C205.377 146.313 196.779 163.533 182.99 177.932C162.341 199.495 137.122 211.201 107.162 211.553C75.3849 211.927 43.6007 211.741 11.8198 211.701C8.71295 211.697 5.607 211.001 2.28906 210.314Z" fill="#566873"/>
<path d="M194.008 53.8322C199.031 53.9319 204.053 54.0316 209.736 54.1947C210.397 54.258 210.857 54.2048 210.857 54.2048C210.857 54.2048 210.878 54.113 210.956 54.3621C211.327 54.8167 211.621 55.0222 211.914 55.2277C211.91 66.7672 211.906 78.3068 211.682 90.3318C211.463 90.8172 210.998 90.7876 210.987 90.4868C210.627 89.8137 210.28 89.1182 209.928 89.1158C198.186 89.0333 186.444 89.017 174.571 88.5977C174.35 78.2431 174.288 68.2813 174.156 58.3205C174.116 55.2362 175.272 53.8223 178.581 53.9303C183.717 54.0979 188.865 53.8842 194.008 53.8322Z" fill="#566873"/>
<path d="M198.361 21.7853C194.51 21.8881 191.056 21.8881 186.899 21.8881C186.899 28.6771 186.52 35.2833 187.018 41.8229C187.422 47.1236 185.423 48.4574 180.532 48.1316C174.909 47.757 169.24 47.9155 163.597 48.0731C160.324 48.1645 158.762 47.3009 158.887 43.6182C159.136 36.3276 158.961 29.0226 158.961 21.3564C160.53 21.0375 161.918 20.7554 163.662 20.3181C170.805 20.1628 177.594 20.1628 185.047 20.1628C185.047 16.8243 185.047 13.8931 185.371 10.8311C185.798 11.6783 186.063 12.6713 185.975 13.6321C185.52 18.6204 187.708 20.4773 192.669 20.0741C196.936 19.7274 201.254 20.0177 205.549 20.0263C203.285 20.5784 201.022 21.1305 198.361 21.7853Z" fill="#566873"/>
<path d="M593.119 25.4723C594.197 24.3505 595.194 23.1213 596.226 23.0904C603.363 22.8769 610.51 22.8131 617.648 22.9797C618.684 23.0039 620.546 24.4911 620.569 25.3415C620.793 33.4352 620.703 41.5376 620.703 50.0924C612.073 50.0924 603.969 50.2372 595.884 49.9059C594.893 49.8653 593.264 47.3079 593.2 45.8604C592.904 39.2244 593.06 32.5683 593.119 25.4723Z" fill="#566873"/>
<path d="M442.937 31.0773C442.922 22.9692 442.922 22.9331 450.353 22.8771C456.017 22.8344 461.691 22.7248 467.337 23.0545C468.526 23.1239 470.553 24.9454 470.592 26.0172C470.872 33.8098 470.743 41.6172 470.743 49.918C461.373 49.918 452.508 49.918 442.941 49.918C442.941 43.4646 442.941 37.5145 442.937 31.0773Z" fill="#566873"/>
<path d="M713.001 95.3634C718.616 94.7636 718.788 95.0429 719.031 100.921C719.288 107.137 719.816 113.342 720.26 119.549C720.444 122.122 715.18 126.609 711.373 126.886C709.057 127.055 706.693 127.142 704.396 126.875C700.931 126.471 699.182 128.258 699.151 131.264C699.083 137.713 698.976 144.229 699.8 150.599C700.58 156.627 707.693 159.647 713.52 157.61C715.645 156.867 718.455 156.96 720.621 157.676C726.085 159.479 729.972 157.144 729.989 151.259C730.06 126.81 730.072 102.36 729.988 77.9105C729.975 74.1235 729.537 70.3067 728.902 66.5703C728.686 65.2949 727.267 64.2235 726.159 62.7394C726.459 62.2805 727.18 61.1775 727.91 59.7418C730.988 58.5339 731.774 60.1856 731.775 62.8224C731.777 68.9798 731.843 75.1372 731.846 81.2945C731.858 105.261 731.748 129.228 731.954 153.193C731.994 157.792 730.6 159.374 725.998 159.234C717.186 158.965 708.355 159.041 699.539 159.254C695.795 159.345 694.686 158.051 694.773 154.329C695.015 144.044 694.857 133.75 694.857 122.745C701.089 122.745 706.696 122.652 712.298 122.779C715.91 122.861 717.853 121.908 717.625 117.707C717.309 111.901 717.51 106.062 717.607 100.239C717.657 97.2499 716.66 95.4269 713.001 95.3634Z" fill="#566873"/>
<path d="M751.547 59.5466C748.585 60.2432 745.188 60.7958 741.301 61.428C741.394 61.8051 741.333 63.0632 741.932 63.7285C744.326 66.3905 745.885 69.0675 745.213 72.9643C744.91 74.7215 746.087 76.7602 746.688 78.6409C747.762 82.0078 748.181 85.8994 750.196 88.5772C753.226 92.6057 751.089 99.4081 757.441 101.548C758.108 101.772 758.782 103.926 758.458 104.827C756.332 110.746 758.813 116.15 762.107 119.997C769.271 128.363 772.901 137.682 772.852 148.418C772.833 152.626 774.252 155.353 777.447 157.675C774.822 156.663 772.415 155.34 770.009 154.017C765.908 142.29 761.679 130.605 757.736 118.825C751.893 101.366 746.243 83.842 740.541 66.336C739.939 64.488 739.542 62.5733 738.714 59.4026C743.345 59.4026 747.229 59.4026 751.547 59.5466Z" fill="#566873"/>
<path d="M205.695 19.5765C201.254 20.0177 196.936 19.7274 192.669 20.0742C187.708 20.4773 185.52 18.6205 185.975 13.6321C186.063 12.6713 185.798 11.6783 185.471 10.3855C185.195 8.30943 185.143 6.54806 185.445 4.08906C192.265 2.89829 198.732 2.40514 205.199 1.91199C205.413 7.65021 205.627 13.3884 205.695 19.5765Z" fill="#566873"/>
<path d="M396.013 41.0441C392.405 39.9574 388.426 39.5048 385.264 37.6555C378.075 33.4511 370.207 33.811 362.547 33.7022C344.924 33.4518 327.292 33.9991 309.666 33.9009C305.267 33.8764 304.119 36.0653 304.038 39.5805C303.906 45.3214 303.979 51.0671 303.976 56.8107C303.972 65.6301 303.978 74.4494 303.977 83.2688C303.977 102.158 303.834 121.049 304.056 139.935C304.126 145.849 305.177 151.751 305.865 158.019C302.454 158.885 303.249 156.275 303.231 154.464C303.152 146.316 303.16 138.166 303.148 130.016C303.103 99.2483 303.159 68.4794 302.914 37.7129C302.878 33.1893 304.441 32.032 308.599 32.0503C328.722 32.1387 348.85 31.792 368.969 32.0915C378.326 32.2308 387.288 34.7741 395.7 40.1669C396.018 40.5599 396.013 41.0441 396.013 41.0441Z" fill="#566873"/>
<path d="M721.659 59.2177C720.778 60.2192 719.533 61.7283 718.188 61.8238C713.716 62.1413 709.209 61.9255 704.715 61.9625C700.398 61.998 697.77 64.8517 698.015 69.1192C698.336 74.738 698.549 80.3645 698.976 85.9749C699.135 88.0522 699.767 90.0934 700.227 92.369C699.619 92.7709 698.711 93.3718 696.872 94.5878C700.42 94.7578 702.97 94.88 705.983 95.1061C706.136 95.3293 705.834 95.5306 705.518 95.5559C694.978 96.3981 694.843 96.2777 694.914 85.825C694.964 78.338 695.143 70.8497 695.044 63.3649C695.002 60.2219 695.911 58.9013 699.289 59.0022C706.604 59.2206 713.929 59.0746 721.659 59.2177Z" fill="#566873"/>
<path d="M789.879 124.26C790.439 124.245 790.96 124.453 790.948 124.621C790.544 130.126 793.955 131.542 799.509 131.247C798.088 134.313 797.033 136.587 795.788 139.273C794.317 138.255 793.185 137.801 792.54 136.969C789.421 132.949 785.278 129.236 783.658 124.652C780.974 117.051 779.913 108.872 778.284 100.913C778.18 100.405 779.069 99.6937 779.862 99.0016C782.506 106.362 784.72 113.817 787.124 121.212C787.522 122.434 788.747 123.387 789.879 124.26Z" fill="#566873"/>
<path d="M1013.81 61.6815C1009.17 61.9504 1004.2 61.5705 999.322 62.083C993.939 62.6487 988.589 63.8211 983.328 65.1387C980.07 65.9544 977.452 66.798 976.701 62.1687C976.575 61.3873 974.808 60.315 973.809 60.3259C968.846 60.3799 963.866 61.1512 958.931 60.8959C954.237 60.653 953.15 63.1106 953.013 66.8591C952.838 71.6709 952.758 76.4861 952.388 81.624C951.975 75.5119 951.649 69.0718 951.807 62.6434C951.832 61.6162 953.977 59.8466 955.219 59.7761C961.836 59.4006 968.492 59.1938 975.101 59.5442C976.799 59.6342 978.378 61.9518 981.037 64.0579C990.625 60.2097 1001.85 57.8878 1013.81 61.6815Z" fill="#566873"/>
<path d="M310.554 158.79C311.883 158.466 313.663 158.059 315.444 158.054C331.232 158.006 347.031 158.386 362.802 157.871C369.95 157.637 377.039 155.651 384.161 154.498C385.621 154.262 387.108 154.197 389.035 154.072C382.45 155.74 375.451 158.58 368.367 158.81C349.266 159.432 330.128 158.942 310.554 158.79Z" fill="#566873"/>
<path d="M902.005 61.6702C893.331 61.4183 884.275 59.8495 875.492 62.9883C870.736 64.6879 866.155 66.8774 861.115 68.7897C873.176 59.4795 886.853 57.1592 902.005 61.6702Z" fill="#566873"/>
<path d="M157.244 13.6899C156.936 14.7259 156.459 15.4921 155.617 16.2726C151.524 14.1955 147.977 11.6316 144.028 10.1162C136.884 7.37489 129.5 5.2594 122.13 2.53674C131.835 5.16318 141.635 8.10654 151.41 11.1324C153.348 11.7325 155.189 12.6493 157.244 13.6899Z" fill="#566873"/>
<path d="M545.604 61.7971C537.657 62.0647 529.359 61.4306 521.246 62.3843C516.199 62.9777 511.434 65.9736 506.162 67.7888C517.966 59.1916 531.11 56.9041 545.604 61.7971Z" fill="#566873"/>
<path d="M418.516 131.071C417.639 127.481 420.571 125.389 421.928 122.537C424.635 116.843 426.064 110.541 428.006 104.486C428.339 103.446 428.599 102.383 429.219 101.195C429.19 112.175 424.872 121.869 418.516 131.071Z" fill="#566873"/>
<path d="M781.43 159.008C786.739 158.558 792.415 158.384 798.068 157.93C799.61 157.806 801.084 156.839 801.538 156.664C803.926 156.041 805.215 155.706 806.743 155.19C807.735 158.678 805.279 159.199 802.639 159.221C795.689 159.279 788.738 159.202 781.43 159.008Z" fill="#566873"/>
<path d="M482.173 106.536C482.666 109.323 482.968 112.567 483.441 115.785C484.512 123.065 487.043 129.685 491.995 135.327C493.102 136.59 493.342 138.613 493.971 140.667C485.373 131.306 481.377 119.96 482.173 106.536Z" fill="#566873"/>
<path d="M770.102 65.5544C768.79 64.84 767.448 63.7457 766.176 62.2745C766.163 61.9314 766.082 61.9654 766 61.9994C762.447 61.4103 758.894 60.8212 755.176 59.9194C757.281 59.4625 759.576 59.4745 761.819 59.142C766.634 58.4284 769.256 60.5161 770.102 65.5544Z" fill="#566873"/>
<path d="M504.184 150.293C509.944 152.389 515.873 154.771 521.89 157.5C516.103 155.425 510.228 153.003 504.184 150.293Z" fill="#566873"/>
<path d="M205.033 1.56124C198.732 2.40521 192.265 2.89837 185.536 3.65754C186.115 2.92078 186.931 1.07702 187.799 1.05155C193.482 0.885017 199.176 1.11201 205.033 1.56124Z" fill="#566873"/>
<path d="M956.586 158.724C961.425 158.413 966.712 158.257 971.994 157.989C974.122 157.881 976.237 157.525 978.752 157.112C978.018 157.625 976.903 158.871 975.759 158.897C969.521 159.042 963.275 158.887 956.586 158.724Z" fill="#566873"/>
<path d="M396.219 41.3021C396.013 41.0441 396.018 40.5598 396.022 40.3177C399.343 42.0932 402.661 44.1108 406.134 46.4158C403.002 44.9889 399.713 43.2745 396.219 41.3021Z" fill="#566873"/>
<path d="M429.671 89.4463C428.409 84.8737 427.207 79.8963 425.981 74.5083C427.215 79.079 428.472 84.0602 429.671 89.4463Z" fill="#566873"/>
<path d="M422.149 65.5434C419.808 62.5233 417.411 59.1509 415.011 55.4109C417.369 58.4259 419.731 61.8085 422.149 65.5434Z" fill="#566873"/>
<path d="M494.448 76.8658C492.647 80.0552 490.545 83.3796 488.108 86.8118C489.898 83.6133 492.022 80.3071 494.448 76.8658Z" fill="#566873"/>
<path d="M408.373 142.968C410.228 140.433 412.404 137.8 414.949 135.23C413.109 137.819 410.901 140.344 408.373 142.968Z" fill="#566873"/>
<path d="M849.73 78.1897C848.158 81.2404 846.307 84.4723 844.123 87.8191C845.677 84.7463 847.564 81.5586 849.73 78.1897Z" fill="#566873"/>
<path d="M857.477 70.7585C855.443 73.1057 853.068 75.5126 850.351 77.9639C852.384 75.6116 854.76 73.2149 857.477 70.7585Z" fill="#566873"/>
<path d="M486.591 89.0538C485.763 92.716 484.657 96.595 483.307 100.733C484.146 97.0851 485.229 93.1779 486.591 89.0538Z" fill="#566873"/>
<path d="M769.998 154.406C772.416 155.34 774.822 156.663 777.622 157.976C778.292 158.072 778.53 158.234 778.846 158.634C775.389 158.774 770.921 160.729 769.998 154.406Z" fill="#566873"/>
<path d="M399.45 149.219C401.239 147.56 403.384 145.863 405.894 144.234C404.108 145.928 401.957 147.555 399.45 149.219Z" fill="#566873"/>
<path d="M573.506 188.091C574.533 185.544 575.856 182.847 577.504 180.057C576.486 182.624 575.144 185.282 573.506 188.091Z" fill="#566873"/>
<path d="M556.278 204.003C558.201 202.41 560.401 200.864 562.958 199.303C561.063 200.875 558.809 202.462 556.278 204.003Z" fill="#566873"/>
<path d="M779.955 97.65C777.78 97.0277 774.356 96.6446 778.019 93.0063C778.886 94.341 779.435 95.8218 779.955 97.65Z" fill="#566873"/>
<path d="M502.452 69.7296C501.005 71.3658 499.214 73.0388 497.073 74.7589C498.518 73.1261 500.313 71.4463 502.452 69.7296Z" fill="#566873"/>
<path d="M496.034 143.365C497.509 144.233 499.105 145.408 500.736 146.944C499.233 146.093 497.694 144.883 496.034 143.365Z" fill="#566873"/>
<path d="M951.891 154.266C952.63 155.267 953.24 156.544 953.922 158.118C953.25 157.124 952.505 155.833 951.891 154.266Z" fill="#566873"/>
<path d="M1024.76 65.7561C1023.13 65.4341 1021.23 64.8927 1019.26 63.9939C1020.96 64.2699 1022.72 64.9033 1024.76 65.7561Z" fill="#566873"/>
<path d="M563.673 199.365C564.694 197.955 566.042 196.523 567.736 195.075C566.722 196.488 565.361 197.915 563.673 199.365Z" fill="#566873"/>
<path d="M425.91 73.6809C424.974 72.5869 424.016 71.1442 423.247 69.3461C423.435 68.9907 423.915 68.9763 423.915 68.9763C424.573 70.4283 425.23 71.8802 425.91 73.6809Z" fill="#566873"/>
<path d="M413.908 53.659C412.689 52.863 411.365 51.7671 410.056 50.3077C411.314 51.0825 412.558 52.2208 413.908 53.659Z" fill="#566873"/>
<path d="M429.943 97.6208C429.648 96.4634 429.507 95.0383 429.571 93.3641C429.883 94.5278 429.989 95.9405 429.943 97.6208Z" fill="#566873"/>
<path d="M568.364 194.952C568.879 193.769 569.693 192.46 570.887 191.179C570.4 192.415 569.532 193.621 568.364 194.952Z" fill="#566873"/>
<path d="M390.321 153.991C391.339 153.325 392.703 152.662 394.445 151.972C393.436 152.627 392.052 153.31 390.321 153.991Z" fill="#566873"/>
<path d="M1019 63.4503C1017.58 63.3437 1015.96 62.949 1014.19 62.2151C1015.62 62.3047 1017.21 62.7334 1019 63.4503Z" fill="#566873"/>
<path d="M409.933 49.6333C408.764 49.1004 407.475 48.2711 406.242 47.0608C407.47 47.5655 408.641 48.4512 409.933 49.6333Z" fill="#566873"/>
<path d="M860.418 68.7317C859.987 69.4133 859.246 70.1476 858.12 70.8003C858.526 70.0739 859.318 69.4291 860.418 68.7317Z" fill="#566873"/>
<path d="M415.592 135.156C415.75 134.294 416.209 133.312 417.036 132.308C416.9 133.203 416.397 134.12 415.592 135.156Z" fill="#566873"/>
<path d="M571.508 191.102C571.672 190.261 572.133 189.282 572.94 188.216C572.791 189.073 572.298 190.019 571.508 191.102Z" fill="#566873"/>
<path d="M505.473 67.7047C505.01 68.4299 504.222 69.1396 503.081 69.7711C503.535 69.025 504.341 68.3571 505.473 67.7047Z" fill="#566873"/>
<path d="M423.902 68.6626C423.915 68.9763 423.434 68.9907 423.193 68.9927C422.657 68.1734 422.362 67.3521 422.115 66.1827C422.739 66.6727 423.314 67.5109 423.902 68.6626Z" fill="#566873"/>
<path d="M395.263 151.852C395.524 151.318 396.083 150.755 396.976 150.258C396.727 150.824 396.143 151.323 395.263 151.852Z" fill="#566873"/>
<path d="M501.848 148.527C502.455 148.605 503.172 148.963 503.939 149.655C503.313 149.595 502.635 149.201 501.848 148.527Z" fill="#566873"/>
<path d="M979.596 105.476C979.476 104.968 979.526 104.142 979.799 103.162C979.937 103.725 979.852 104.441 979.596 105.476Z" fill="#566873"/>
<path d="M406.465 144.283C406.581 143.88 407.003 143.479 407.742 143.064C407.63 143.462 407.201 143.873 406.465 144.283Z" fill="#566873"/>
<path d="M843.634 88.0237C843.742 88.4309 843.6 89.0204 843.212 89.7983C843.105 89.3932 843.245 88.7996 843.634 88.0237Z" fill="#566873"/>
<path d="M487.584 86.988C487.692 87.4307 487.525 88.0356 487.068 88.7959C486.956 88.3509 487.132 87.7506 487.584 86.988Z" fill="#566873"/>
<path d="M397.486 150.345C397.627 149.952 398.081 149.547 398.871 149.168C398.738 149.573 398.269 149.954 397.486 150.345Z" fill="#566873"/>
<path d="M500.778 147.506C501.053 147.38 501.377 147.541 501.78 147.977C501.515 148.098 501.172 147.946 500.778 147.506Z" fill="#566873"/>
<path d="M494.023 141.277C494.218 141.22 494.49 141.417 494.867 141.849C494.68 141.9 494.39 141.716 494.023 141.277Z" fill="#566873"/>
<path d="M417.543 132.24C417.393 131.965 417.536 131.634 417.942 131.201C418.082 131.461 417.959 131.822 417.543 132.24Z" fill="#566873"/>
<path d="M790.876 121.103C791.005 121.028 790.9 121.475 790.869 121.582C790.624 121.552 790.593 121.382 790.876 121.103Z" fill="#566873"/>
<path d="M792.611 115.576C792.758 115.78 792.644 116.167 792.308 116.763C792.174 116.567 792.263 116.163 792.611 115.576Z" fill="#566873"/>
<path d="M842.786 90.0493C842.897 90.2119 842.769 90.4356 842.451 90.7598C842.22 90.5667 842.315 90.3166 842.786 90.0493Z" fill="#566873"/>
<path d="M495.522 75.781C495.639 76.0551 495.466 76.3783 495.015 76.7786C494.903 76.5138 495.067 76.172 495.522 75.781Z" fill="#566873"/>
<path d="M414.895 54.7441C414.655 54.8697 414.412 54.6801 414.134 54.1986C414.389 54.0265 414.653 54.2006 414.895 54.7441Z" fill="#566873"/>
<path d="M494.99 142.291C495.194 142.225 495.474 142.42 495.863 142.851C495.67 142.909 495.367 142.731 494.99 142.291Z" fill="#566873"/>
<path d="M496.516 74.7759C496.635 75.0448 496.465 75.3661 496.019 75.7591C495.905 75.4966 496.067 75.1624 496.516 74.7759Z" fill="#566873"/>
<path d="M71.1795 83.9458C67.2061 77.7174 63.3146 71.4339 59.1955 65.3034C58.2882 63.9531 56.5946 62.2611 55.2271 62.2282C44.6337 61.9736 34.0315 62.0878 22.4928 62.0878C23.9569 64.5995 24.994 66.3788 26.0974 68.5062C22.9184 68.6147 18.4531 62.8635 19.5071 59.9042C19.8177 59.0321 21.6961 57.9163 22.5071 58.1458C33.1669 61.1618 43.7713 56.6585 54.3559 58.0867C56.7852 58.4144 59.0726 59.7937 61.4255 60.6886C62.2923 61.0182 63.2261 61.7432 64.016 61.611C69.1624 60.7491 74.2409 59.3284 79.4132 58.8181C84.64 58.3026 89.9506 58.6691 95.2231 58.5741C99.7554 58.4924 104.179 59.5286 108.889 58.2291C111.317 57.5592 114.753 59.7395 117.474 61.1387C120.865 62.8829 126.636 61.5463 128.484 57.9256C136.264 57.9256 144.2 58.3031 152.075 57.7731C156.282 57.49 153.891 53.6673 154.134 50.9048C157.742 51.6654 161.238 53.224 164.897 53.9109C168.034 54.4998 168.753 55.45 168.602 58.7731C168.141 68.9126 168.287 79.0813 168.299 89.2385C168.301 90.5154 168.917 91.7916 169.012 93.4136C167.519 93.173 166.263 92.5869 165.006 92.0008C165.006 92.0008 165 92 165.001 91.6653C165.001 90.8883 165.001 90.446 165 90.0036C165 90.0036 165 90 165.379 89.9043C166.169 87.2046 166.581 84.6006 166.992 81.9966C166.713 78.7736 166.434 75.5506 166.154 72.3275C165.256 72.3187 164.358 72.3098 163.46 72.3009C162.973 76.3704 161.704 80.5354 162.186 84.4868C162.891 90.2672 158.601 92.9031 155.944 97.1314C158.273 91.3999 154.852 89.9927 150.299 88.7028C149.174 87.7641 148.473 87.2107 147.675 86.3036C152.288 78.1796 156.997 70.4094 161.927 62.2736C149.937 62.2736 138.722 62.2736 126.495 62.2736C132.73 72.035 138.493 81.0586 144.207 90.0047C145.614 88.6858 146.639 87.7237 147.797 87.0952C148.619 87.9527 149.31 88.4767 150 89.0006C149.289 92.5508 148.63 96.1128 147.823 99.6411C147.658 100.361 147.079 101.284 146.451 101.552C141.202 103.794 142.291 108.288 142.277 112.507C142.271 114.264 141.646 116.019 141.301 117.782C138.654 116.319 135.648 114.464 135.536 114.625C133.3 117.832 128.595 119.544 129.303 124.641C129.506 126.101 128.873 127.678 128.624 129.201C127.627 128.836 126.63 128.47 125.071 127.857C124.318 127.028 124.128 126.445 123.927 125.492C127.293 119.855 130.815 114.674 133.964 109.274C134.95 107.583 135.974 104.687 135.207 103.392C127.764 90.8151 120.024 78.4101 112.14 66.1024C111.018 64.3499 108.715 62.2893 106.893 62.2247C96.449 61.8549 85.9855 62.0449 73.8291 62.0449C76.4191 65.9755 78.2702 68.7847 80.0913 72.0114C81.3287 76.0645 81.333 80.5396 86.2836 81.7348C86.3124 81.724 86.3737 81.7307 86.2831 82.0996C87.3206 85.2303 87.298 88.0857 89.8989 90.7248C92.6462 93.5126 96.9172 97.3667 93.3568 102.662C95.3688 103.686 97.817 104.14 98.8209 105.593C101.627 109.653 104.062 114.019 106.172 118.487C107.06 120.368 106.763 122.809 107.003 124.997C107 125 106.995 125.007 106.711 125.104C105.081 123.586 103.772 121.938 102.378 120.365C100.651 118.415 98.4858 116.744 97.192 114.55C95.9101 112.377 96.2287 108.73 94.5368 107.422C88.2022 102.526 85.4156 95.9098 83.5405 88.5773C83.357 87.8594 82.663 87.0163 81.9911 86.7222C78.55 85.2155 75.562 81.7908 71.1795 83.9458Z" fill="#566873"/>
<path d="M101.968 161.93C102.923 160.159 103.878 158.389 105.353 156.296C106.767 154.199 107.662 152.423 108.557 150.647C108.557 150.647 108.601 150.648 108.957 150.653C110.398 149.343 111.483 148.027 112.594 146.679C109.767 143.872 107.309 141.432 104.852 138.991C104.852 138.991 104.717 138.734 104.822 138.18C104.883 135.741 104.541 133.8 104.87 131.981C105.3 129.606 106.262 127.327 106.995 125.007C106.995 125.007 107 125 107.345 124.961C112.409 123.309 113.14 127.683 113.724 129.992C114.792 134.217 117.449 135.374 121 135.999C120.451 137.854 119.897 139.708 119.354 141.565C117.499 147.905 114.379 153.596 110.068 158.548C108.255 160.63 105.84 162.188 103.11 163.807C102.337 163.064 102.152 162.497 101.968 161.93Z" fill="#566873"/>
<path d="M121.303 135.835C117.449 135.375 114.792 134.217 113.724 129.993C113.14 127.683 112.409 123.309 107.348 124.958C106.763 122.809 107.06 120.368 106.172 118.487C104.062 114.019 101.627 109.653 98.8207 105.593C97.8168 104.14 95.3685 103.686 93.3565 102.662C96.9169 97.3667 92.646 93.5126 89.8986 90.7248C87.2977 88.0857 87.3204 85.2303 86.5518 82.2939C96.5082 97.8094 106.089 113.509 115.735 129.169C116.456 130.34 117.645 131.224 118.616 132.241C119.445 131.189 120.251 130.117 121.11 129.09C122.027 127.993 122.993 126.937 123.938 125.863C124.128 126.445 124.318 127.028 124.75 127.804C123.864 130.556 122.735 133.114 121.303 135.835Z" fill="#566873"/>
<path d="M165.004 92.3862C166.262 92.5869 167.519 93.173 169.127 93.8144C169.72 93.899 169.901 94.0192 170.152 94.6881C170.618 95.3486 170.953 95.5514 171.287 95.7541C171.287 95.7541 171.325 95.7322 171.343 95.7205C175.151 97.4724 178.794 99.8225 182.776 100.821C186.203 101.681 190.018 101 193.661 101C193.769 101.84 193.876 102.681 193.984 103.521C191.605 104.014 189.226 104.507 186.423 105C182.586 104.664 179.175 104.309 175.759 103.996C170.786 103.54 166.026 98.5898 165.004 92.3862Z" fill="#566873"/>
<path d="M65.9883 134.477C73.0255 145.416 80.063 156.766 87.1633 168.454C85.8433 168.032 83.6598 167.589 83.2122 166.459C80.9374 160.715 74.434 157.54 74.0165 150.543C73.9094 148.749 71.043 147.119 68.649 146.208C67.7622 142.435 66.8754 138.661 65.9883 134.477Z" fill="#566873"/>
<path d="M87.1361 169.23C88.904 171.113 90.6105 173.392 92.9639 175.86C94.7383 176.368 95.8658 176.685 96.9933 177.003C96.7977 178.876 96.6022 180.749 96.4067 182.621C94.4094 181.974 91.7191 181.919 90.5564 180.558C87.9967 177.563 85.5129 174.118 87.1361 169.23Z" fill="#566873"/>
<path d="M97.2638 176.725C95.8658 176.685 94.7383 176.368 93.2593 176.005C95.7034 171.339 98.499 166.717 101.631 162.013C102.153 162.497 102.337 163.064 102.761 163.817C102.444 165.461 102.31 167.579 101.254 168.252C98.0711 170.28 97.9889 173.374 97.2638 176.725Z" fill="#566873"/>
<path d="M59.0942 123.093C61.129 125.845 63.1273 129.017 65.2139 132.531C59.1747 132.453 60.3885 127.134 59.0942 123.093Z" fill="#566873"/>
<path d="M54.0293 114.987C55.599 116.903 57.0238 119.15 58.5549 121.702C55.3854 120.98 52.5197 119.66 54.0293 114.987Z" fill="#566873"/>
<path d="M109.094 171.373C108.419 172.56 107.46 173.555 106.5 174.55C106.072 173.9 105.644 173.249 105.216 172.599C106.413 172.126 107.611 171.653 109.094 171.373Z" fill="#566873"/>
<path d="M166.615 82.0947C166.58 84.6005 166.169 87.2046 165.38 89.9047C165.414 87.3982 165.827 84.7956 166.615 82.0947Z" fill="#566873"/>
<path d="M26.0957 69.2711C26.8687 69.8949 27.6007 70.9159 28.3636 72.2428C27.6146 71.5886 26.8346 70.6285 26.0957 69.2711Z" fill="#566873"/>
<path d="M164.711 90.0469C165 90.4459 165.001 90.8882 165.001 91.6622C164.499 91.6778 163.997 91.3616 163.496 91.0454C163.805 90.727 164.113 90.4086 164.711 90.0469Z" fill="#566873"/>
<path d="M154.983 16.2262C154.982 16.8201 154.7 17.5412 154.171 18.4243C154.183 17.842 154.442 17.0977 154.983 16.2262Z" fill="#566873"/>
<path d="M105.536 169.478C105.558 169.52 105.513 169.436 105.536 169.478Z" fill="#566873"/>
<path d="M28.3228 73.0243C28.5548 72.9351 28.8611 73.1295 29.2802 73.5897C29.061 73.673 28.729 73.4904 28.3228 73.0243Z" fill="#566873"/>
<path d="M370.108 59.616C368.93 59.6133 367.753 59.6105 365.837 59.3514C363.92 59.1109 362.742 59.1268 361.564 59.1426C351.8 59.2165 342.037 59.2904 331.489 59.2145C330.472 59.0407 330.238 59.0165 330.005 58.9924C331.735 58.6597 333.465 58.327 336.066 57.9954C348.863 57.5413 360.79 57.1052 372.713 56.5778C373.347 56.5498 373.946 55.7517 374.562 55.3122C373.848 54.571 373.186 53.2588 372.41 53.1878C369.12 52.8868 365.79 52.8072 362.484 52.9152C353.653 53.2035 344.826 53.6301 335.998 54.0017C335.4 48.0972 336.198 47.0493 341.488 47.0088C346.748 46.9684 352.023 47.2227 357.26 46.874C359.127 46.7496 361.853 45.6896 362.53 44.268C364.175 40.8095 366.263 41.5525 369.071 42.0233C371.297 42.3966 374.035 42.226 375.99 41.2182C381.099 38.5845 384.001 39.393 386.162 44.8003C386.397 45.3906 386.794 45.9168 387.279 46.7545C391.434 45.0694 393.382 46.7915 395.728 50.503C397.754 53.7103 402.296 55.2851 405.6 57.7491C406.976 58.7746 408.233 60.0973 409.186 61.5242C411.499 64.9882 413.601 68.5925 415.949 72.4004C417.742 71.1676 418.995 70.3061 421.248 68.7568C420.508 70.8298 420.056 71.7906 419.823 72.8021C418.961 76.5595 417.262 80.2151 422.209 83.0229C425.818 85.0712 425.315 88.0721 422.054 90.2989C421.036 90.9939 420.529 92.5882 420.036 93.8665C419.126 96.2249 418.399 98.654 417.429 101.554C412.393 97.921 408.181 94.8814 404.087 91.9276C403.201 97.4479 406.094 104.54 400.058 109.966C402.402 102.135 403.733 94.0611 401.057 85.7425C396.406 71.2811 386.818 62.4632 371.234 59.6929C370.508 59.3033 370.288 59.3522 370.108 59.616Z" fill="#566873"/>
<path d="M335.998 54.4008C344.826 53.6301 353.653 53.2035 362.484 52.9152C365.791 52.8073 369.12 52.8868 372.411 53.1879C373.186 53.2588 373.848 54.571 374.562 55.3122C373.946 55.7518 373.347 56.5498 372.713 56.5778C360.79 57.1052 348.864 57.5414 336.469 57.9939C336 56.9274 335.999 55.8637 335.998 54.4008Z" fill="#566873"/>
<path d="M330.233 68.6294C330.523 79.3432 330.73 90.4136 330.829 101.485C330.904 109.926 330.76 118.37 330.913 126.809C330.942 128.382 331.916 129.938 332.433 131.743C331.614 131.992 330.817 131.999 330.019 132.005C330.047 110.999 330.076 89.9928 330.233 68.6294Z" fill="#566873"/>
<path d="M330.317 132.294C330.817 131.999 331.614 131.992 332.807 131.927C333.551 131.822 333.899 131.774 334.988 131.859C345.611 131.95 355.492 131.908 365.372 131.866C369.3 131.225 373.228 130.585 377.57 129.928C375.608 130.932 373.242 132.803 370.854 132.832C357.444 132.995 344.029 132.713 330.317 132.294Z" fill="#566873"/>
<path d="M329.999 59.3901C330.238 59.0165 330.472 59.0406 331.053 59.1246C331.16 61.1047 330.919 63.025 330.531 65.327C330.253 63.735 330.123 61.7614 329.999 59.3901Z" fill="#566873"/>
<path d="M779.441 119.955C779.807 119.733 780.171 119.736 780.532 119.764C780.542 119.765 780.536 120.178 780.527 120.178C780.165 120.196 779.801 120.188 779.441 119.955Z" fill="#566873"/>
<path d="M705.51 91.5191C705.536 91.5084 705.485 91.5298 705.51 91.5191Z" fill="#566873"/>
<path d="M210.987 90.4868C199.538 90.9256 188.079 91.0848 176.619 91.1455C175.979 91.1489 175.335 90.3394 174.697 89.4496C186.444 89.017 198.186 89.0333 209.927 89.1158C210.279 89.1182 210.627 89.8137 210.987 90.4868Z" fill="#566873"/>
<path d="M171.224 95.456C170.953 95.5513 170.618 95.3486 170.202 94.8501C170.467 94.7555 170.814 94.9567 171.224 95.456Z" fill="#566873"/>
<path d="M766 61.9997C766.081 61.9654 766.163 61.9314 766.122 61.949C766 62.0006 766 61.9997 766 61.9997Z" fill="#566873"/>
<path d="M106.711 125.103C106.262 127.327 105.3 129.606 104.87 131.981C104.541 133.8 104.884 135.741 104.892 138.053C103.115 136.114 101.183 133.865 99.6622 131.366C90.192 115.809 80.8137 100.196 71.292 84.274C75.5616 81.7908 78.5496 85.2154 81.9907 86.7221C82.6626 87.0163 83.3566 87.8594 83.5402 88.5772C85.4152 95.9098 88.2018 102.526 94.5364 107.422C96.2283 108.73 95.9097 112.377 97.1917 114.55C98.4855 116.744 100.651 118.415 102.378 120.365C103.771 121.938 105.081 123.586 106.711 125.103Z" fill="#566873"/>
<path d="M104.855 139.354C107.309 141.432 109.767 143.872 112.594 146.679C111.483 148.027 110.398 149.343 108.964 150.674C110.25 148.217 109.144 146.281 107.556 144.27C106.472 142.898 105.745 141.245 104.855 139.354Z" fill="#566873"/>
<path d="M108.264 150.77C107.662 152.423 106.767 154.199 105.509 155.99C106.087 154.302 107.029 152.598 108.264 150.77Z" fill="#566873"/>
<path d="M80.0908 72.0114C82.1264 74.7519 84.132 77.91 86.196 81.4069C81.3325 80.5395 81.3282 76.0644 80.0908 72.0114Z" fill="#566873"/>
<path d="M147.773 86.712C148.472 87.2106 149.173 87.7641 149.937 88.6585C150 88.9994 150 89.0003 150 89.0003C149.309 88.4767 148.619 87.9527 147.796 87.0952C147.665 86.7617 147.774 86.7669 147.773 86.712Z" fill="#566873"/>
<path d="M364.961 131.717C355.492 131.908 345.611 131.95 335.242 131.941C344.686 131.782 354.618 131.675 364.961 131.717Z" fill="#566873"/>
<path d="M361.891 59.3112C362.742 59.1267 363.92 59.1109 365.415 59.2151C364.561 59.3834 363.39 59.4316 361.891 59.3112Z" fill="#566873"/>
<path d="M370.3 59.7056C370.288 59.3522 370.508 59.3032 370.837 59.5821C370.905 59.6952 370.493 59.7953 370.3 59.7056Z" fill="#566873"/>
<path d="M1107.77 202.655L1107.54 197.667L1119.43 185.326H1124.16L1114.28 195.821L1111.95 198.38L1107.77 202.655ZM1104.01 208V185.326H1108.23V208H1104.01ZM1119.82 208L1111.14 197.667L1113.93 194.59L1124.74 208H1119.82Z" fill="#566873"/>
<path d="M1070.34 208V185.326H1073.81L1088.03 202.785H1086.31V185.326H1090.49V208H1087.02L1072.8 190.541H1074.52V208H1070.34Z" fill="#566873"/>
<path d="M1035.42 208L1045.62 185.326H1049.77L1060.01 208H1055.6L1046.82 187.561H1048.51L1039.76 208H1035.42ZM1040.12 202.752L1041.25 199.449H1053.5L1054.63 202.752H1040.12Z" fill="#566873"/>
<path d="M1006.54 208V185.326H1017.16C1019.88 185.326 1021.95 185.866 1023.38 186.945C1024.81 188.003 1025.52 189.429 1025.52 191.221C1025.52 192.43 1025.24 193.467 1024.68 194.331C1024.11 195.173 1023.36 195.831 1022.41 196.307C1021.48 196.76 1020.46 196.987 1019.36 196.987L1019.95 195.821C1021.22 195.821 1022.36 196.058 1023.38 196.533C1024.39 196.987 1025.19 197.656 1025.78 198.542C1026.38 199.427 1026.68 200.528 1026.68 201.846C1026.68 203.789 1025.94 205.301 1024.45 206.38C1022.96 207.46 1020.75 208 1017.81 208H1006.54ZM1010.75 204.696H1017.55C1019.13 204.696 1020.34 204.437 1021.18 203.919C1022.02 203.4 1022.44 202.569 1022.44 201.424C1022.44 200.302 1022.02 199.481 1021.18 198.963C1020.34 198.423 1019.13 198.153 1017.55 198.153H1010.42V194.881H1016.71C1018.18 194.881 1019.3 194.622 1020.08 194.104C1020.87 193.586 1021.27 192.808 1021.27 191.772C1021.27 190.714 1020.87 189.925 1020.08 189.407C1019.3 188.889 1018.18 188.63 1016.71 188.63H1010.75V204.696Z" fill="#566873"/>
<path d="M964.871 194.752H976.143V198.218H964.871V194.752ZM965.195 204.469H977.99V208H960.984V185.326H977.536V188.856H965.195V204.469Z" fill="#566873"/>
<path d="M940.494 208.324C938.767 208.324 937.158 208.043 935.668 207.482C934.2 206.899 932.915 206.089 931.813 205.052C930.734 203.994 929.892 202.753 929.287 201.327C928.682 199.902 928.38 198.347 928.38 196.663C928.38 194.979 928.682 193.424 929.287 191.998C929.892 190.573 930.745 189.342 931.846 188.306C932.947 187.248 934.232 186.438 935.7 185.876C937.169 185.293 938.778 185.002 940.527 185.002C942.384 185.002 944.079 185.326 945.612 185.974C947.146 186.6 948.441 187.539 949.499 188.792L946.778 191.351C945.958 190.465 945.04 189.807 944.025 189.375C943.01 188.921 941.909 188.695 940.721 188.695C939.533 188.695 938.443 188.889 937.45 189.278C936.478 189.666 935.625 190.217 934.891 190.93C934.178 191.642 933.617 192.484 933.206 193.456C932.818 194.428 932.623 195.497 932.623 196.663C932.623 197.829 932.818 198.898 933.206 199.87C933.617 200.841 934.178 201.684 934.891 202.396C935.625 203.109 936.478 203.66 937.45 204.048C938.443 204.437 939.533 204.631 940.721 204.631C941.909 204.631 943.01 204.415 944.025 203.983C945.04 203.53 945.958 202.85 946.778 201.943L949.499 204.534C948.441 205.765 947.146 206.704 945.612 207.352C944.079 208 942.373 208.324 940.494 208.324Z" fill="#566873"/>
<path d="M896.326 208V185.326H899.792L914.012 202.785H912.295V185.326H916.473V208H913.007L898.787 190.541H900.504V208H896.326Z" fill="#566873"/>
<path d="M861.406 208L871.61 185.326H875.756L885.992 208H881.586L872.808 187.561H874.493L865.747 208H861.406ZM866.103 202.752L867.237 199.449H879.481L880.615 202.752H866.103Z" fill="#566873"/>
<path d="M830.939 208V185.326H834.405L848.625 202.785H846.909V185.326H851.087V208H847.621L833.401 190.541H835.118V208H830.939Z" fill="#566873"/>
<path d="M813.146 208V185.326H817.356V208H813.146Z" fill="#566873"/>
<path d="M788.926 195.756H800.231V199.319H788.926V195.756ZM789.282 208H785.071V185.326H801.624V188.856H789.282V208Z" fill="#566873"/>
<path d="M760.978 208.324C759.207 208.324 757.577 208.032 756.087 207.449C754.597 206.866 753.301 206.057 752.2 205.02C751.098 203.962 750.246 202.731 749.641 201.327C749.036 199.902 748.734 198.347 748.734 196.663C748.734 194.979 749.036 193.435 749.641 192.031C750.246 190.606 751.098 189.375 752.2 188.338C753.301 187.28 754.597 186.459 756.087 185.876C757.577 185.293 759.196 185.002 760.946 185.002C762.716 185.002 764.336 185.293 765.804 185.876C767.294 186.459 768.59 187.28 769.691 188.338C770.793 189.375 771.646 190.606 772.25 192.031C772.855 193.435 773.157 194.979 773.157 196.663C773.157 198.347 772.855 199.902 772.25 201.327C771.646 202.753 770.793 203.983 769.691 205.02C768.59 206.057 767.294 206.866 765.804 207.449C764.336 208.032 762.727 208.324 760.978 208.324ZM760.946 204.631C762.09 204.631 763.148 204.437 764.12 204.048C765.092 203.66 765.934 203.109 766.647 202.396C767.359 201.662 767.91 200.82 768.299 199.87C768.709 198.898 768.914 197.829 768.914 196.663C768.914 195.497 768.709 194.439 768.299 193.488C767.91 192.517 767.359 191.675 766.647 190.962C765.934 190.228 765.092 189.666 764.12 189.278C763.148 188.889 762.09 188.695 760.946 188.695C759.801 188.695 758.743 188.889 757.771 189.278C756.821 189.666 755.979 190.228 755.245 190.962C754.532 191.675 753.971 192.517 753.56 193.488C753.172 194.439 752.977 195.497 752.977 196.663C752.977 197.807 753.172 198.866 753.56 199.837C753.971 200.809 754.532 201.662 755.245 202.396C755.957 203.109 756.799 203.66 757.771 204.048C758.743 204.437 759.801 204.631 760.946 204.631Z" fill="#566873"/>
<path d="M719.21 208V185.326H728.539C730.548 185.326 732.264 185.65 733.69 186.297C735.136 186.945 736.249 187.874 737.026 189.083C737.803 190.292 738.192 191.728 738.192 193.391C738.192 195.054 737.803 196.49 737.026 197.699C736.249 198.887 735.136 199.805 733.69 200.453C732.264 201.079 730.548 201.392 728.539 201.392H721.543L723.421 199.481V208H719.21ZM734.046 208L728.313 199.772H732.815L738.581 208H734.046ZM723.421 199.934L721.543 197.926H728.345C730.202 197.926 731.595 197.527 732.523 196.728C733.474 195.929 733.949 194.816 733.949 193.391C733.949 191.944 733.474 190.832 732.523 190.055C731.595 189.277 730.202 188.889 728.345 188.889H721.543L723.421 186.816V199.934Z" fill="#566873"/>
<path d="M698.721 208.324C696.993 208.324 695.385 208.043 693.895 207.482C692.426 206.899 691.141 206.089 690.04 205.052C688.96 203.994 688.118 202.753 687.513 201.327C686.909 199.902 686.606 198.347 686.606 196.663C686.606 194.979 686.909 193.424 687.513 191.998C688.118 190.573 688.971 189.342 690.072 188.306C691.174 187.248 692.459 186.438 693.927 185.876C695.395 185.293 697.004 185.002 698.753 185.002C700.611 185.002 702.306 185.326 703.839 185.974C705.372 186.6 706.668 187.539 707.726 188.792L705.005 191.351C704.184 190.465 703.267 189.807 702.252 189.375C701.237 188.921 700.135 188.695 698.948 188.695C697.76 188.695 696.67 188.889 695.676 189.278C694.704 189.666 693.851 190.217 693.117 190.93C692.405 191.642 691.843 192.484 691.433 193.456C691.044 194.428 690.85 195.497 690.85 196.663C690.85 197.829 691.044 198.898 691.433 199.87C691.843 200.841 692.405 201.684 693.117 202.396C693.851 203.109 694.704 203.66 695.676 204.048C696.67 204.437 697.76 204.631 698.948 204.631C700.135 204.631 701.237 204.415 702.252 203.983C703.267 203.53 704.184 202.85 705.005 201.943L707.726 204.534C706.668 205.765 705.372 206.704 703.839 207.352C702.306 208 700.6 208.324 698.721 208.324Z" fill="#566873"/>
<path d="M670.432 208V185.326H674.643V208H670.432Z" fill="#566873"/>
<path d="M632.045 208V185.326H635.511L645.423 201.878H643.609L653.359 185.326H656.825L656.857 208H652.873L652.84 191.577H653.683L645.39 205.409H643.512L635.09 191.577H636.062V208H632.045Z" fill="#566873"/>
</svg>
