<svg width="147" height="36" viewBox="0 0 147 36" fill="none" xmlns="http://www.w3.org/2000/svg">
<path d="M48.3243 18.8163L48.8239 16.2477C48.8239 16.2477 44.9766 15.1194 41.8453 17.2119V27.4873H45.1705V19.139C46.4955 18.1748 48.3243 18.8163 48.3243 18.8163Z" fill="#00425F"/>
<mask id="mask0_59_31599" style="mask-type:luminance" maskUnits="userSpaceOnUse" x="41" y="15" width="8" height="13">
<path fill-rule="evenodd" clip-rule="evenodd" d="M41.8452 17.2119C43.3518 16.2053 45.0243 15.944 46.3541 15.9442C47.7882 15.9442 48.824 16.2479 48.824 16.2479L48.3242 18.8165C48.3242 18.8165 46.4954 18.175 45.1704 19.139V27.4873H41.8452V17.2119Z" fill="white"/>
</mask>
<g mask="url(#mask0_59_31599)">
<path d="M-160.568 59.3345L307.699 59.3345L307.699 -539.709H-160.568L-160.568 59.3345Z" fill="#00425F"/>
</g>
<mask id="mask1_59_31599" style="mask-type:luminance" maskUnits="userSpaceOnUse" x="41" y="15" width="8" height="13">
<path fill-rule="evenodd" clip-rule="evenodd" d="M41.8452 17.2119C43.3518 16.2053 45.0241 15.9442 46.3541 15.9442C47.7882 15.9442 48.824 16.2479 48.824 16.2479L48.3242 18.8165C48.3242 18.8165 46.4954 18.175 45.1704 19.139V27.4873H41.8452V17.2119Z" fill="white"/>
</mask>
<g mask="url(#mask1_59_31599)">
<path d="M36.2706 32.5215H54.3986V10.9102H36.2706V32.5215Z" fill="#00425F"/>
</g>
<path d="M19.6575 13.3184L22.9811 12.7529V16.0948H26.27V18.7673H22.9811V22.7528C22.9811 23.4318 23.1027 23.9708 23.3513 24.3693C23.597 24.774 24.0899 24.9746 24.8301 24.9746C25.192 24.9746 25.5555 24.9432 25.9389 24.8767C26.3115 24.8091 26.6588 24.7223 26.9715 24.6085L27.4418 27.1119C27.0395 27.2677 26.5948 27.403 26.1045 27.5177C25.6128 27.6312 25.009 27.6904 24.2955 27.6904C23.3886 27.6904 22.6391 27.571 22.0432 27.3342C21.4502 27.0973 20.9734 26.765 20.618 26.3409C20.2626 25.9206 20.0127 25.4047 19.8724 24.8007C19.7295 24.1978 19.6575 23.532 19.6575 22.7975V13.3184Z" fill="#00425F"/>
<mask id="mask2_59_31599" style="mask-type:luminance" maskUnits="userSpaceOnUse" x="19" y="12" width="9" height="16">
<path fill-rule="evenodd" clip-rule="evenodd" d="M19.6576 13.3184L22.9813 12.7529V16.0948H26.2701V18.7673H22.9813V22.7528C22.9813 23.432 23.1028 23.9708 23.3512 24.3693C23.597 24.7742 24.0898 24.9746 24.83 24.9746C25.1919 24.9746 25.5552 24.9432 25.9388 24.8767C26.3114 24.8091 26.659 24.7223 26.9716 24.6087L27.4417 27.1119C27.0396 27.2679 26.5947 27.4032 26.1045 27.5179C25.6127 27.6314 25.0089 27.6904 24.2955 27.6904C23.3883 27.6904 22.6391 27.571 22.0433 27.3342C21.4501 27.0973 20.9731 26.765 20.6179 26.3411C20.2625 25.9206 20.0128 25.4047 19.8726 24.8007C19.7295 24.1978 19.6576 23.5322 19.6576 22.7975V13.3184Z" fill="white"/>
</mask>
<g mask="url(#mask2_59_31599)">
<path d="M-160.568 59.3345L307.699 59.3345L307.699 -539.709H-160.568L-160.568 59.3345Z" fill="#00425F"/>
</g>
<mask id="mask3_59_31599" style="mask-type:luminance" maskUnits="userSpaceOnUse" x="19" y="12" width="9" height="16">
<path fill-rule="evenodd" clip-rule="evenodd" d="M19.6576 13.3184L22.9813 12.7529V16.0948H26.2701V18.7673H22.9813V22.7528C22.9813 23.432 23.1028 23.9708 23.3512 24.3693C23.597 24.7742 24.0898 24.9746 24.83 24.9746C25.1919 24.9746 25.5552 24.9432 25.9388 24.8767C26.3114 24.8091 26.659 24.7223 26.9716 24.6087L27.4417 27.1119C27.0396 27.2679 26.5947 27.4032 26.1045 27.5179C25.6127 27.6314 25.0089 27.6904 24.2955 27.6904C23.3883 27.6904 22.6391 27.571 22.0433 27.3342C21.4501 27.0973 20.9731 26.765 20.6179 26.3411C20.2625 25.9206 20.0128 25.4047 19.8726 24.8007C19.7295 24.1978 19.6576 23.5322 19.6576 22.7975V13.3184Z" fill="white"/>
</mask>
<g mask="url(#mask3_59_31599)">
<path d="M14.0827 32.7246H33.0161V7.71892H14.0827L14.0827 32.7246Z" fill="#00425F"/>
</g>
<path d="M53.7469 25.1863C54.3548 25.1863 54.7849 25.1258 55.0402 25.0122C55.2938 24.8976 55.4167 24.6729 55.4167 24.3443C55.4167 24.0845 55.2565 23.8586 54.9278 23.6665C54.5993 23.4708 54.1049 23.2534 53.4344 23.0056C52.9146 22.8183 52.4418 22.6252 52.0156 22.4258C51.5948 22.2229 51.2342 21.986 50.9363 21.7045C50.6395 21.4243 50.4098 21.0883 50.2441 20.6969C50.0784 20.3127 49.9999 19.8476 49.9999 19.299C49.9999 18.237 50.4098 17.3949 51.2261 16.7775C52.0436 16.1626 53.1632 15.8485 54.5925 15.8485C55.3073 15.8485 55.9912 15.9101 56.6458 16.0346C57.2991 16.1554 57.8215 16.2932 58.2047 16.432L57.6263 18.9328C57.239 18.8036 56.8182 18.6901 56.3653 18.591C55.9124 18.4897 55.4022 18.4364 54.8383 18.4364C53.7977 18.4364 53.2766 18.7191 53.2766 19.2784C53.2766 19.4076 53.2994 19.5225 53.3448 19.6227C53.3901 19.7243 53.4785 19.8209 53.6094 19.9139C53.7469 20.0058 53.926 20.1095 54.1583 20.216C54.3893 20.3283 54.6833 20.4442 55.0402 20.576C55.7654 20.8369 56.3679 21.0906 56.8436 21.3469C57.3204 21.6029 57.6945 21.8725 57.9711 22.1719C58.2462 22.4644 58.4414 22.7883 58.5508 23.1481C58.6604 23.5071 58.7178 23.9214 58.7178 24.3939C58.7178 25.5138 58.2822 26.3606 57.4153 26.9333C56.5442 27.5036 55.3125 27.791 53.7215 27.791C52.6821 27.791 51.8165 27.7077 51.1258 27.5326C50.4326 27.3622 49.9543 27.215 49.6872 27.1013L50.2441 24.4941C50.8066 24.7091 51.3918 24.8758 51.9823 25.0017C52.5807 25.1248 53.1632 25.1863 53.7469 25.1863Z" fill="#00425F"/>
<mask id="mask4_59_31599" style="mask-type:luminance" maskUnits="userSpaceOnUse" x="49" y="15" width="10" height="13">
<path fill-rule="evenodd" clip-rule="evenodd" d="M51.226 16.7777C52.0436 16.1626 53.1631 15.8485 54.5924 15.8485C55.3073 15.8485 55.9913 15.9101 56.6459 16.0346C57.299 16.1554 57.8214 16.293 58.2048 16.432L57.6264 18.9328C57.2388 18.8036 56.8183 18.6901 56.3651 18.591C55.9124 18.4895 55.402 18.4366 54.8384 18.4366C53.7975 18.4366 53.2767 18.7189 53.2767 19.2784C53.2767 19.4076 53.2992 19.5225 53.3446 19.6227C53.3902 19.7243 53.4786 19.8209 53.6095 19.9139C53.7467 20.0058 53.9261 20.1095 54.1584 20.216C54.3894 20.3282 54.6831 20.4444 55.0401 20.576C55.7655 20.8369 56.368 21.0906 56.8435 21.3469C57.3205 21.6029 57.6945 21.8723 57.9712 22.1719C58.2463 22.4644 58.4412 22.7881 58.5509 23.1481C58.6605 23.5071 58.7176 23.9214 58.7176 24.3939C58.7176 25.5138 58.2821 26.3608 57.4153 26.9333C56.5443 27.5036 55.3126 27.791 53.7215 27.791C52.6822 27.791 51.8165 27.7077 51.1259 27.5326C50.4324 27.3622 49.9543 27.215 49.687 27.1013L50.2442 24.4941C50.8067 24.7093 51.3916 24.8758 51.9822 25.0017C52.5806 25.1246 53.1631 25.1863 53.7467 25.1863C54.3546 25.1863 54.785 25.126 55.0401 25.0122C55.2939 24.8976 55.4168 24.6729 55.4168 24.3443C55.4168 24.0845 55.2565 23.8586 54.9278 23.6665C54.5991 23.4708 54.1047 23.2534 53.4343 23.0056C52.9145 22.8183 52.4418 22.6252 52.0154 22.4258C51.5949 22.2229 51.234 21.986 50.9364 21.7045C50.6395 21.4241 50.4098 21.0883 50.2442 20.6969C50.0785 20.3125 49.9997 19.8476 49.9997 19.299C49.9997 18.2371 50.4098 17.3951 51.226 16.7777Z" fill="white"/>
</mask>
<g mask="url(#mask4_59_31599)">
<path d="M-160.568 59.3345L307.699 59.3345L307.699 -539.709H-160.568L-160.568 59.3345Z" fill="#00425F"/>
</g>
<mask id="mask5_59_31599" style="mask-type:luminance" maskUnits="userSpaceOnUse" x="49" y="15" width="10" height="13">
<path fill-rule="evenodd" clip-rule="evenodd" d="M51.226 16.7777C52.0436 16.1626 53.1631 15.8485 54.5924 15.8485C55.3073 15.8485 55.9913 15.9101 56.6459 16.0346C57.299 16.1554 57.8214 16.293 58.2048 16.432L57.6264 18.9328C57.2388 18.8036 56.8183 18.6901 56.3651 18.591C55.9124 18.4895 55.402 18.4366 54.8384 18.4366C53.7975 18.4366 53.2767 18.7189 53.2767 19.2784C53.2767 19.4076 53.2992 19.5225 53.3446 19.6227C53.3902 19.7243 53.4786 19.8209 53.6095 19.9139C53.7467 20.0058 53.9261 20.1095 54.1584 20.216C54.3894 20.3282 54.6831 20.4444 55.0401 20.576C55.7655 20.8369 56.368 21.0906 56.8435 21.3469C57.3205 21.6029 57.6945 21.8723 57.9712 22.1719C58.2463 22.4644 58.4412 22.7881 58.5509 23.1481C58.6605 23.5071 58.7176 23.9214 58.7176 24.3939C58.7176 25.5138 58.2821 26.3608 57.4153 26.9333C56.5443 27.5036 55.3126 27.791 53.7215 27.791C52.6822 27.791 51.8165 27.7077 51.1259 27.5326C50.4324 27.3622 49.9543 27.215 49.687 27.1013L50.2442 24.4941C50.8067 24.7093 51.3916 24.8758 51.9822 25.0017C52.5806 25.1246 53.1631 25.1863 53.7467 25.1863C54.3546 25.1863 54.785 25.126 55.0401 25.0122C55.2939 24.8976 55.4168 24.6729 55.4168 24.3443C55.4168 24.0845 55.2565 23.8586 54.9278 23.6665C54.5991 23.4708 54.1047 23.2534 53.4343 23.0056C52.9145 22.8183 52.4418 22.6252 52.0154 22.4258C51.5949 22.2229 51.234 21.986 50.9364 21.7045C50.6395 21.4241 50.4098 21.0883 50.2442 20.6969C50.0785 20.3125 49.9997 19.8476 49.9997 19.299C49.9997 18.2371 50.4098 17.3951 51.226 16.7777Z" fill="white"/>
</mask>
<g mask="url(#mask5_59_31599)">
<path d="M44.1125 32.8252H64.2925V10.8146H44.1125V32.8252Z" fill="#00425F"/>
</g>
<path d="M68.9617 20.9802C68.6638 22.0724 68.3498 23.1598 68.0146 24.235C67.6805 25.3139 67.3251 26.3989 66.9579 27.491H64.3703C64.1017 26.8869 63.8093 26.1693 63.4966 25.3368C63.1811 24.5008 62.8594 23.5935 62.5213 22.6065C62.1872 21.6228 61.8454 20.5816 61.4952 19.4797C61.1439 18.3827 60.8033 17.2736 60.4774 16.1512H63.9801C64.0963 16.667 64.2285 17.2338 64.3714 17.8438C64.5132 18.4551 64.6628 19.0846 64.8191 19.7322C64.9754 20.3775 65.1424 21.026 65.3132 21.6809C65.4856 22.3357 65.6621 22.9627 65.8408 23.5658C66.0347 22.9339 66.2245 22.2887 66.4101 21.6277C66.5931 20.9658 66.7736 20.3157 66.9458 19.6767C67.1155 19.0387 67.2825 18.419 67.4347 17.8222C67.5897 17.2264 67.7274 16.667 67.8489 16.1512H70.2548C70.3777 16.667 70.5071 17.2264 70.658 17.8222C70.805 18.419 70.9615 19.0387 71.1272 19.6767C71.2874 20.3157 71.4624 20.9658 71.6374 21.6277C71.8176 22.2887 72.0022 22.9339 72.1933 23.5658C72.3735 22.9627 72.5526 22.3357 72.7328 21.6809C72.9132 21.026 73.0828 20.3775 73.2378 19.7322C73.3928 19.0846 73.5424 18.4551 73.6868 17.8438C73.8297 17.2338 73.9593 16.667 74.078 16.1512H77.5354C77.2069 17.2736 76.8689 18.3827 76.5176 19.4797C76.1635 20.5816 75.8254 21.6228 75.4876 22.6065C75.1547 23.5935 74.8262 24.5008 74.5069 25.3368C74.1851 26.1693 73.8883 26.8869 73.6241 27.491H71.0364C70.6621 26.3989 70.2989 25.3139 69.9409 24.235C69.5841 23.1598 69.2609 22.0724 68.9617 20.9802Z" fill="#00425F"/>
<mask id="mask6_59_31599" style="mask-type:luminance" maskUnits="userSpaceOnUse" x="60" y="16" width="18" height="12">
<path fill-rule="evenodd" clip-rule="evenodd" d="M74.078 16.1514H77.5354C77.2069 17.2739 76.8689 18.383 76.5174 19.4797C76.1635 20.5818 75.8254 21.6233 75.4874 22.6067C75.1547 23.5937 74.8262 24.5011 74.5066 25.3371C74.1849 26.1696 73.8883 26.8869 73.6238 27.4912H71.0362C70.6621 26.3991 70.2989 25.3139 69.9409 24.235C69.5841 23.16 69.2609 22.0727 68.9617 20.9804C68.6636 22.0727 68.3496 23.16 68.0146 24.235C67.6805 25.3139 67.3251 26.3991 66.9577 27.4912H64.3701C64.1015 26.8869 63.8091 26.1696 63.4964 25.3371C63.1811 24.5011 62.8592 23.5937 62.5213 22.6067C62.1872 21.6233 61.8452 20.5818 61.4952 19.4797C61.1439 18.383 60.8033 17.2739 60.4774 16.1514H63.9799C64.0963 16.6673 64.2285 17.2339 64.3714 17.844C64.5132 18.4553 64.6625 19.0849 64.8191 19.7323C64.9752 20.3775 65.1424 21.0263 65.3132 21.6811C65.4856 22.336 65.6621 22.963 65.8408 23.566C66.0345 22.9341 66.2243 22.2887 66.4099 21.628C66.5929 20.9661 66.7736 20.3159 66.9458 19.677C67.1153 19.0388 67.2823 18.4191 67.4347 17.8224C67.5897 17.2266 67.7274 16.6673 67.8487 16.1514H70.2548C70.3775 16.6673 70.5071 17.2266 70.658 17.8224C70.805 18.4191 70.9615 19.0388 71.127 19.677C71.2874 20.3159 71.4622 20.9661 71.6374 21.628C71.8176 22.2887 72.0022 22.9341 72.193 23.566C72.3735 22.963 72.5524 22.336 72.7328 21.6811C72.9132 21.0263 73.0828 20.3775 73.2378 19.7323C73.3928 19.0849 73.5424 18.4553 73.6866 17.844C73.8297 17.2339 73.9593 16.6673 74.078 16.1514Z" fill="white"/>
</mask>
<g mask="url(#mask6_59_31599)">
<path d="M-160.568 59.3347L307.7 59.3347L307.7 -539.709H-160.568L-160.568 59.3347Z" fill="#00425F"/>
</g>
<mask id="mask7_59_31599" style="mask-type:luminance" maskUnits="userSpaceOnUse" x="60" y="16" width="18" height="12">
<path fill-rule="evenodd" clip-rule="evenodd" d="M74.078 16.1514H77.5354C77.2069 17.2739 76.8689 18.383 76.5174 19.4797C76.1635 20.5818 75.8254 21.6233 75.4874 22.6067C75.1547 23.5937 74.8262 24.5011 74.5066 25.3371C74.1849 26.1696 73.8883 26.8869 73.6238 27.4912H71.0362C70.6621 26.3991 70.2989 25.3139 69.9409 24.235C69.5841 23.16 69.2609 22.0727 68.9617 20.9804C68.6636 22.0727 68.3496 23.16 68.0146 24.235C67.6805 25.3139 67.3251 26.3991 66.9577 27.4912H64.3701C64.1015 26.8869 63.8091 26.1696 63.4964 25.3371C63.1811 24.5011 62.8592 23.5937 62.5213 22.6067C62.1872 21.6233 61.8452 20.5818 61.4952 19.4797C61.1439 18.383 60.8033 17.2739 60.4774 16.1514H63.9799C64.0963 16.6673 64.2285 17.2339 64.3714 17.844C64.5132 18.4553 64.6625 19.0849 64.8191 19.7323C64.9752 20.3775 65.1424 21.0263 65.3132 21.6811C65.4856 22.336 65.6621 22.963 65.8408 23.566C66.0345 22.9341 66.2243 22.2887 66.4099 21.628C66.5929 20.9661 66.7736 20.3159 66.9458 19.677C67.1153 19.0388 67.2823 18.4191 67.4347 17.8224C67.5897 17.2266 67.7274 16.6673 67.8487 16.1514H70.2548C70.3775 16.6673 70.5071 17.2266 70.658 17.8224C70.805 18.4191 70.9615 19.0388 71.127 19.677C71.2874 20.3159 71.4622 20.9661 71.6374 21.628C71.8176 22.2887 72.0022 22.9341 72.193 23.566C72.3735 22.963 72.5524 22.336 72.7328 21.6811C72.9132 21.0263 73.0828 20.3775 73.2378 19.7323C73.3928 19.0849 73.5424 18.4553 73.6866 17.844C73.8297 17.2339 73.9593 16.6673 74.078 16.1514Z" fill="white"/>
</mask>
<g mask="url(#mask7_59_31599)">
<path d="M54.9028 32.5254H83.1101V11.1175L54.9028 11.1175V32.5254Z" fill="#00425F"/>
</g>
<path d="M79.8847 27.4866H83.2032V16.1492H79.8847V27.4866Z" fill="#00425F"/>
<mask id="mask8_59_31599" style="mask-type:luminance" maskUnits="userSpaceOnUse" x="79" y="16" width="5" height="12">
<path fill-rule="evenodd" clip-rule="evenodd" d="M79.8847 27.4868V16.1494H83.2034V27.4868H79.8847Z" fill="white"/>
</mask>
<g mask="url(#mask8_59_31599)">
<path d="M-160.568 59.3345L307.699 59.3345L307.699 -539.709H-160.568L-160.568 59.3345Z" fill="#00425F"/>
</g>
<mask id="mask9_59_31599" style="mask-type:luminance" maskUnits="userSpaceOnUse" x="79" y="16" width="5" height="12">
<path fill-rule="evenodd" clip-rule="evenodd" d="M79.8847 27.4868V16.1494H83.2034V27.4868H79.8847Z" fill="white"/>
</mask>
<g mask="url(#mask9_59_31599)">
<path d="M74.31 32.5208H88.7776V11.1152H74.31V32.5208Z" fill="#00425F"/>
</g>
<path d="M85.843 13.3218L89.164 12.7528V16.1549H92.4505V18.8225H89.164V22.8119C89.164 23.4871 89.2869 24.031 89.5313 24.4284C89.7758 24.8307 90.2713 25.0325 91.013 25.0325C91.3723 25.0325 91.7409 25.0035 92.1176 24.937C92.4982 24.8717 92.843 24.7788 93.157 24.6665L93.6233 27.1674C93.221 27.3266 92.7735 27.4621 92.2861 27.578C91.7928 27.6915 91.196 27.7495 90.4797 27.7495C89.5715 27.7495 88.822 27.6313 88.2275 27.3919C87.6318 27.1588 87.1561 26.829 86.8009 26.4012C86.4455 25.9808 86.1971 25.4625 86.0542 24.8621C85.9098 24.2569 85.843 23.5875 85.843 22.8564V13.3218Z" fill="#00425F"/>
<mask id="mask10_59_31599" style="mask-type:luminance" maskUnits="userSpaceOnUse" x="85" y="12" width="9" height="16">
<path fill-rule="evenodd" clip-rule="evenodd" d="M85.843 13.3218L89.1638 12.7528V16.1549H92.4503V18.8225H89.1638V22.8119C89.1638 23.4871 89.2869 24.0308 89.5313 24.4284C89.7758 24.8307 90.2713 25.0323 91.0127 25.0323C91.3721 25.0323 91.7409 25.0035 92.1176 24.937C92.4983 24.8715 92.843 24.7788 93.1568 24.6664L93.6231 27.1672C93.221 27.3266 92.7733 27.4621 92.2861 27.578C91.7928 27.6915 91.196 27.7495 90.4797 27.7495C89.5715 27.7495 88.8218 27.6313 88.2276 27.3919C87.6316 27.1586 87.1561 26.829 86.8009 26.4014C86.4455 25.9808 86.1971 25.4627 86.054 24.8621C85.9098 24.2569 85.843 23.5873 85.843 22.8566V13.3218Z" fill="white"/>
</mask>
<g mask="url(#mask10_59_31599)">
<path d="M-160.568 59.3345L307.699 59.3345L307.699 -539.709H-160.568L-160.568 59.3345Z" fill="#00425F"/>
</g>
<mask id="mask11_59_31599" style="mask-type:luminance" maskUnits="userSpaceOnUse" x="85" y="12" width="9" height="16">
<path fill-rule="evenodd" clip-rule="evenodd" d="M85.843 13.3218L89.1638 12.7528V16.1549H92.4503V18.8225H89.1638V22.8119C89.1638 23.4871 89.2869 24.0308 89.5313 24.4284C89.7758 24.8307 90.2713 25.0323 91.0127 25.0323C91.3721 25.0323 91.7409 25.0035 92.1176 24.937C92.4983 24.8715 92.843 24.7788 93.1568 24.6664L93.6231 27.1672C93.221 27.3266 92.7733 27.4621 92.2861 27.578C91.7928 27.6915 91.196 27.7495 90.4797 27.7495C89.5715 27.7495 88.8218 27.6313 88.2276 27.3919C87.6316 27.1586 87.1561 26.829 86.8009 26.4014C86.4455 25.9808 86.1971 25.4627 86.054 24.8621C85.9098 24.2569 85.843 23.5873 85.843 22.8566V13.3218Z" fill="white"/>
</mask>
<g mask="url(#mask11_59_31599)">
<path d="M80.2682 32.7837H99.1979V7.71877H80.2682V32.7837Z" fill="#00425F"/>
</g>
<path d="M94.7969 21.8238C94.7969 21.0032 94.9347 20.2302 95.2098 19.5053C95.4849 18.7779 95.8818 18.1474 96.4016 17.6072C96.9225 17.0673 97.553 16.6418 98.2983 16.3242C99.0398 16.0113 99.8868 15.8494 100.838 15.8494C101.462 15.8494 102.035 15.9062 102.556 16.0125C103.077 16.1225 103.585 16.276 104.072 16.4752L103.383 19.0403C103.069 18.9265 102.728 18.8275 102.354 18.7381C101.983 18.6534 101.565 18.6089 101.105 18.6089C100.125 18.6089 99.3911 18.9048 98.9115 19.4943C98.4238 20.0853 98.1861 20.8597 98.1861 21.8238C98.1861 22.8421 98.4119 23.6334 98.8689 24.1941C99.3177 24.7535 100.111 25.035 101.24 25.035C101.642 25.035 102.071 24.9974 102.535 24.9262C102.994 24.8537 103.418 24.7402 103.808 24.5807L104.273 27.2121C103.885 27.3703 103.404 27.5032 102.825 27.6203C102.242 27.7342 101.605 27.7932 100.907 27.7932C99.8373 27.7932 98.913 27.6362 98.142 27.328C97.3702 27.02 96.7327 26.5994 96.2357 26.0679C95.7348 25.5352 95.3742 24.907 95.1432 24.182C94.912 23.456 94.7969 22.6684 94.7969 21.8238Z" fill="#00425F"/>
<mask id="mask12_59_31599" style="mask-type:luminance" maskUnits="userSpaceOnUse" x="94" y="15" width="11" height="13">
<path fill-rule="evenodd" clip-rule="evenodd" d="M98.2983 16.3242C99.0398 16.0113 99.8868 15.8494 100.838 15.8494C101.462 15.8494 102.035 15.906 102.556 16.0123C103.077 16.1225 103.585 16.2758 104.072 16.4752L103.383 19.0401C103.069 18.9265 102.728 18.8275 102.354 18.7381C101.983 18.6532 101.565 18.6087 101.105 18.6087C100.125 18.6087 99.3911 18.9048 98.9115 19.4943C98.4238 20.0851 98.1861 20.8595 98.1861 21.8238C98.1861 22.8421 98.4121 23.6334 98.8689 24.1941C99.3177 24.7535 100.111 25.035 101.24 25.035C101.642 25.035 102.071 24.9974 102.535 24.9262C102.994 24.8537 103.418 24.7402 103.807 24.5806L104.273 27.2121C103.885 27.3703 103.404 27.503 102.824 27.6203C102.242 27.734 101.605 27.7932 100.907 27.7932C99.837 27.7932 98.913 27.636 98.142 27.3278C97.3702 27.0198 96.7327 26.5994 96.2355 26.0681C95.735 25.5352 95.3742 24.907 95.1432 24.182C94.912 23.456 94.7969 22.6682 94.7969 21.8238C94.7969 21.0032 94.9347 20.2302 95.2098 19.5053C95.4849 18.7779 95.8818 18.1472 96.4014 17.607C96.9225 17.0671 97.553 16.6418 98.2983 16.3242Z" fill="white"/>
</mask>
<g mask="url(#mask12_59_31599)">
<path d="M-160.568 59.3345L307.7 59.3345L307.7 -539.709H-160.568L-160.568 59.3345Z" fill="#00425F"/>
</g>
<mask id="mask13_59_31599" style="mask-type:luminance" maskUnits="userSpaceOnUse" x="94" y="15" width="11" height="13">
<path fill-rule="evenodd" clip-rule="evenodd" d="M98.2983 16.3242C99.0398 16.0113 99.8868 15.8494 100.838 15.8494C101.462 15.8494 102.035 15.906 102.556 16.0123C103.077 16.1225 103.585 16.2758 104.072 16.4752L103.383 19.0401C103.069 18.9265 102.728 18.8275 102.354 18.7381C101.983 18.6532 101.565 18.6087 101.105 18.6087C100.125 18.6087 99.3911 18.9048 98.9115 19.4943C98.4238 20.0851 98.1861 20.8595 98.1861 21.8238C98.1861 22.8421 98.4121 23.6334 98.8689 24.1941C99.3177 24.7535 100.111 25.035 101.24 25.035C101.642 25.035 102.071 24.9974 102.535 24.9262C102.994 24.8537 103.418 24.7402 103.807 24.5806L104.273 27.2121C103.885 27.3703 103.404 27.503 102.824 27.6203C102.242 27.734 101.605 27.7932 100.907 27.7932C99.837 27.7932 98.913 27.636 98.142 27.3278C97.3702 27.0198 96.7327 26.5994 96.2355 26.0681C95.735 25.5352 95.3742 24.907 95.1432 24.182C94.912 23.456 94.7969 22.6682 94.7969 21.8238C94.7969 21.0032 94.9347 20.2302 95.2098 19.5053C95.4849 18.7779 95.8818 18.1472 96.4014 17.607C96.9225 17.0671 97.553 16.6418 98.2983 16.3242Z" fill="white"/>
</mask>
<g mask="url(#mask13_59_31599)">
<path d="M89.2223 32.8274H109.847V10.8154H89.2223V32.8274Z" fill="#00425F"/>
</g>
<path d="M106.42 27.4868V13.3175L109.742 12.7534V16.1966C109.964 16.1252 110.248 16.0564 110.601 15.9913C110.948 15.9272 111.289 15.8933 111.615 15.8933C112.565 15.8933 113.354 16.0202 113.987 16.2703C114.618 16.5217 115.127 16.8781 115.504 17.3383C115.886 17.7963 116.15 18.3447 116.309 18.9742C116.463 19.6083 116.54 20.3141 116.54 21.0897V27.4868H113.219V21.475C113.219 20.4408 113.082 19.7087 112.808 19.275C112.533 18.8483 112.022 18.6323 111.281 18.6323C110.979 18.6323 110.704 18.6578 110.442 18.706C110.183 18.7568 109.949 18.8123 109.742 18.8691V27.4868H106.42Z" fill="#00425F"/>
<mask id="mask14_59_31599" style="mask-type:luminance" maskUnits="userSpaceOnUse" x="106" y="12" width="11" height="16">
<path fill-rule="evenodd" clip-rule="evenodd" d="M106.42 13.3175L109.742 12.7534V16.1968C109.964 16.1252 110.248 16.0564 110.601 15.9913C110.948 15.9272 111.289 15.8935 111.615 15.8935C112.565 15.8935 113.354 16.0204 113.988 16.2703C114.618 16.5219 115.127 16.8781 115.504 17.3385C115.886 17.7963 116.15 18.3447 116.309 18.9744C116.463 19.6085 116.54 20.3141 116.54 21.0899V27.4868H113.219V21.475C113.219 20.441 113.082 19.7087 112.808 19.275C112.533 18.8485 112.022 18.6323 111.281 18.6323C110.979 18.6323 110.704 18.6578 110.442 18.7062C110.183 18.7568 109.949 18.8123 109.742 18.8691V27.4868H106.42V13.3175Z" fill="white"/>
</mask>
<g mask="url(#mask14_59_31599)">
<path d="M-160.568 59.3345L307.699 59.3345L307.699 -539.709H-160.568L-160.568 59.3345Z" fill="#00425F"/>
</g>
<mask id="mask15_59_31599" style="mask-type:luminance" maskUnits="userSpaceOnUse" x="106" y="12" width="11" height="16">
<path fill-rule="evenodd" clip-rule="evenodd" d="M106.42 13.3175L109.742 12.7534V16.1968C109.964 16.1252 110.248 16.0564 110.601 15.9913C110.948 15.9272 111.289 15.8935 111.615 15.8935C112.565 15.8935 113.354 16.0204 113.988 16.2703C114.618 16.5219 115.127 16.8781 115.504 17.3385C115.886 17.7963 116.15 18.3447 116.309 18.9744C116.463 19.6085 116.54 20.3141 116.54 21.0899V27.4868H113.219V21.475C113.219 20.441 113.082 19.7087 112.808 19.275C112.533 18.8485 112.022 18.6323 111.281 18.6323C110.979 18.6323 110.704 18.6578 110.442 18.7062C110.183 18.7568 109.949 18.8123 109.742 18.8691V27.4868H106.42V13.3175Z" fill="white"/>
</mask>
<g mask="url(#mask15_59_31599)">
<path d="M100.845 32.521H122.115V7.71931H100.845V32.521Z" fill="#00425F"/>
</g>
<path d="M6.25473 27.4907L6.25473 17.2165C6.25473 17.2165 7.92457 15.9274 11.5769 15.9274C14.9006 15.9274 16.7256 17.5332 16.7256 21.067V27.4907H13.4059V21.067C13.4059 18.8162 12.2409 18.6603 11.2456 18.6603C10.2503 18.6603 9.58379 19.1387 9.58379 19.1387V27.4907H6.25473Z" fill="#00425F"/>
<mask id="mask16_59_31599" style="mask-type:luminance" maskUnits="userSpaceOnUse" x="6" y="15" width="11" height="13">
<path fill-rule="evenodd" clip-rule="evenodd" d="M6.25473 17.2165C6.25473 17.2165 7.92457 15.9274 11.5769 15.9274C14.9006 15.9274 16.7254 17.533 16.7254 21.0671V27.4907H13.4059V21.0671C13.4059 18.816 12.2409 18.6603 11.2456 18.6603C10.2503 18.6603 9.58379 19.1389 9.58379 19.1389V27.4907H6.25473L6.25473 17.2165Z" fill="white"/>
</mask>
<g mask="url(#mask16_59_31599)">
<path d="M-160.568 59.3345L307.7 59.3345L307.7 -539.709H-160.568L-160.568 59.3345Z" fill="#00425F"/>
</g>
<mask id="mask17_59_31599" style="mask-type:luminance" maskUnits="userSpaceOnUse" x="6" y="15" width="11" height="13">
<path fill-rule="evenodd" clip-rule="evenodd" d="M6.25473 17.2165C6.25473 17.2165 7.92457 15.9274 11.5769 15.9274C14.9006 15.9274 16.7254 17.533 16.7254 21.0671V27.4907H13.4059V21.0671C13.4059 18.816 12.2409 18.6603 11.2456 18.6603C10.2503 18.6603 9.58379 19.1389 9.58379 19.1389V27.4907H6.25473L6.25473 17.2165Z" fill="white"/>
</mask>
<g mask="url(#mask17_59_31599)">
<path d="M0.680389 32.5249H22.3001V10.8936H0.680389L0.680389 32.5249Z" fill="#00425F"/>
</g>
<path d="M0 27.4907L0 13.3189L3.32365 12.7534L3.32365 27.4907H0Z" fill="#00425F"/>
<mask id="mask18_59_31599" style="mask-type:luminance" maskUnits="userSpaceOnUse" x="0" y="12" width="4" height="16">
<path fill-rule="evenodd" clip-rule="evenodd" d="M0 13.3191L3.32365 12.7534L3.32365 27.4907H0L0 13.3191Z" fill="white"/>
</mask>
<g mask="url(#mask18_59_31599)">
<path d="M-160.568 59.3345L307.699 59.3345V-539.709H-160.568L-160.568 59.3345Z" fill="#00425F"/>
</g>
<mask id="mask19_59_31599" style="mask-type:luminance" maskUnits="userSpaceOnUse" x="0" y="12" width="4" height="16">
<path fill-rule="evenodd" clip-rule="evenodd" d="M0 13.3191L3.32365 12.7534L3.32365 27.4907H0L0 13.3191Z" fill="white"/>
</mask>
<g mask="url(#mask19_59_31599)">
<path d="M-5.57462 32.5249H8.89841L8.89841 7.71968H-5.57462L-5.57462 32.5249Z" fill="#00425F"/>
</g>
<path fill-rule="evenodd" clip-rule="evenodd" d="M31.7706 22.6357H39.2464C39.5803 20.7049 39.2464 15.8941 34.2609 15.8941C30.9384 15.8941 28.6139 18.1388 28.6139 21.674C28.6139 26.1693 31.6036 27.7727 34.9288 27.7727C37.2532 27.7727 38.9137 27.1359 38.9137 27.1359L38.5811 24.5638C38.5811 24.5638 36.9193 25.0435 35.2573 25.0435C31.9375 25.0435 31.7706 22.6357 31.7706 22.6357ZM31.7706 20.3858C31.7706 20.3858 31.9375 18.1388 34.0979 18.1388C36.2567 18.1388 36.4195 20.3858 36.4195 20.3858H31.7706Z" fill="#00425F"/>
<mask id="mask20_59_31599" style="mask-type:luminance" maskUnits="userSpaceOnUse" x="28" y="15" width="12" height="13">
<path fill-rule="evenodd" clip-rule="evenodd" d="M28.614 21.6738C28.614 18.1386 30.9385 15.8939 34.2608 15.8939C39.2463 15.8939 39.5802 20.7049 39.2463 22.6355H31.7707C31.7707 22.6355 31.9377 25.0433 35.2572 25.0433C36.9192 25.0433 38.5811 24.5636 38.5811 24.5636L38.9137 27.1357C38.9137 27.1357 37.2532 27.7727 34.9287 27.7727C31.6038 27.7727 28.614 26.1693 28.614 21.6738ZM34.0978 18.1386C31.9377 18.1386 31.7707 20.3858 31.7707 20.3858H36.4197C36.4197 20.3858 36.2566 18.1386 34.0978 18.1386Z" fill="white"/>
</mask>
<g mask="url(#mask20_59_31599)">
<path d="M-160.568 59.3345L307.699 59.3345L307.699 -539.709H-160.568L-160.568 59.3345Z" fill="#00425F"/>
</g>
<mask id="mask21_59_31599" style="mask-type:luminance" maskUnits="userSpaceOnUse" x="28" y="15" width="12" height="13">
<path fill-rule="evenodd" clip-rule="evenodd" d="M28.614 21.6738C28.614 18.1386 30.9385 15.8939 34.2608 15.8939C39.2463 15.8939 39.5802 20.7049 39.2463 22.6355H31.7707C31.7707 22.6355 31.9377 25.0433 35.2572 25.0433C36.9192 25.0433 38.5811 24.5636 38.5811 24.5636L38.9137 27.1357C38.9137 27.1357 37.2532 27.7727 34.9287 27.7727C31.6038 27.7727 28.614 26.1693 28.614 21.6738ZM34.0978 18.1386C31.9377 18.1386 31.7707 20.3858 31.7707 20.3858H36.4197C36.4197 20.3858 36.2566 18.1386 34.0978 18.1386Z" fill="white"/>
</mask>
<g mask="url(#mask21_59_31599)">
<path d="M23.0394 32.8066H44.914V10.8599L23.0394 10.8599V32.8066Z" fill="#00425F"/>
</g>
<mask id="mask22_59_31599" style="mask-type:luminance" maskUnits="userSpaceOnUse" x="120" y="10" width="23" height="26">
<path fill-rule="evenodd" clip-rule="evenodd" d="M120.943 12.7563C120.943 12.0712 130.498 10.5929 136.906 10.5929C139.686 10.5929 141.873 10.8709 142.432 11.612C145.318 15.0529 125.004 36.6402 123.311 35.9854C121.954 35.658 134.141 21.9176 132.11 16.3542C131.096 13.4123 120.943 13.7395 120.943 12.7563Z" fill="white"/>
</mask>
<g mask="url(#mask22_59_31599)">
<path d="M115.368 41.0342H148.287V5.55907H115.368V41.0342Z" fill="#EE312A"/>
</g>
<mask id="mask23_59_31599" style="mask-type:luminance" maskUnits="userSpaceOnUse" x="138" y="0" width="9" height="9">
<path fill-rule="evenodd" clip-rule="evenodd" d="M138.202 4.25133C138.202 1.90154 140.172 -6.00815e-05 142.601 -6.00815e-05C145.032 -6.00815e-05 147 1.90154 147 4.25133C147 6.60231 145.032 8.50391 142.601 8.50391C140.172 8.50391 138.202 6.60231 138.202 4.25133Z" fill="white"/>
</mask>
<g mask="url(#mask23_59_31599)">
<path d="M132.627 13.5381L152.575 13.5381V-5.0342H132.627V13.5381Z" fill="#EE312A"/>
</g>
</svg>
