<svg width="115" height="41" viewBox="0 0 115 41" fill="none" xmlns="http://www.w3.org/2000/svg">
<path fill-rule="evenodd" clip-rule="evenodd" d="M37.8046 16.127L38.1955 13.9255C38.1955 13.9255 35.1857 12.9585 32.736 14.752V23.5587H35.3373V16.4036C36.3739 15.5772 37.8046 16.127 37.8046 16.127Z" fill="white"/>
<mask id="mask0_12550_445228" style="mask-type:alpha" maskUnits="userSpaceOnUse" x="32" y="13" width="7" height="11">
<path d="M32.736 14.7519C33.9146 13.8892 35.223 13.6652 36.2634 13.6654C37.3853 13.6654 38.1956 13.9257 38.1956 13.9257L37.8046 16.1272C37.8046 16.1272 36.3739 15.5774 35.3373 16.4036V23.5587H32.736V14.7519Z" fill="white"/>
</mask>
<g mask="url(#mask0_12550_445228)">
<path fill-rule="evenodd" clip-rule="evenodd" d="M-125.614 50.8541L240.717 50.8541L240.717 -462.571H-125.614L-125.614 50.8541Z" fill="white"/>
</g>
<mask id="mask1_12550_445228" style="mask-type:alpha" maskUnits="userSpaceOnUse" x="32" y="13" width="7" height="11">
<path d="M32.736 14.7519C33.9146 13.8892 35.2229 13.6654 36.2634 13.6654C37.3853 13.6654 38.1956 13.9257 38.1956 13.9257L37.8046 16.1272C37.8046 16.1272 36.3739 15.5774 35.3373 16.4036V23.5587H32.736V14.7519Z" fill="white"/>
</mask>
<g mask="url(#mask1_12550_445228)">
<path fill-rule="evenodd" clip-rule="evenodd" d="M28.3751 27.8734H42.5568V9.35094H28.3751V27.8734Z" fill="white"/>
</g>
<path fill-rule="evenodd" clip-rule="evenodd" d="M15.3782 11.4148L17.9784 10.9302V13.7944H20.5513V16.085H17.9784V19.5009C17.9784 20.0828 18.0735 20.5447 18.268 20.8864C18.4602 21.2332 18.8458 21.4051 19.4248 21.4051C19.708 21.4051 19.9923 21.3782 20.2923 21.3212C20.5837 21.2633 20.8555 21.1888 21.1001 21.0914L21.468 23.2369C21.1533 23.3705 20.8054 23.4864 20.4219 23.5847C20.0371 23.682 19.5648 23.7328 19.0067 23.7328C18.2972 23.7328 17.7108 23.6305 17.2446 23.4275C16.7807 23.2245 16.4077 22.9396 16.1297 22.5762C15.8516 22.2159 15.6561 21.7738 15.5464 21.2561C15.4346 20.7393 15.3782 20.1687 15.3782 19.5392V11.4148Z" fill="white"/>
<mask id="mask2_12550_445228" style="mask-type:alpha" maskUnits="userSpaceOnUse" x="15" y="10" width="7" height="14">
<path d="M15.3785 11.4148L17.9786 10.9302V13.7944H20.5515V16.085H17.9786V19.5009C17.9786 20.083 18.0737 20.5447 18.268 20.8864C18.4603 21.2334 18.8459 21.4051 19.4249 21.4051C19.708 21.4051 19.9922 21.3782 20.2923 21.3212C20.5838 21.2633 20.8557 21.1888 21.1003 21.0916L21.4681 23.2369C21.1535 23.3707 20.8055 23.4866 20.4219 23.5849C20.0372 23.6822 19.5649 23.7328 19.0067 23.7328C18.2971 23.7328 17.7109 23.6305 17.2448 23.4275C16.7808 23.2245 16.4076 22.9396 16.1297 22.5763C15.8517 22.2159 15.6564 21.7738 15.5466 21.2561C15.4347 20.7393 15.3785 20.1688 15.3785 19.5392V11.4148Z" fill="white"/>
</mask>
<g mask="url(#mask2_12550_445228)">
<path fill-rule="evenodd" clip-rule="evenodd" d="M-125.614 50.8539L240.717 50.8539L240.717 -462.572H-125.614L-125.614 50.8539Z" fill="white"/>
<path fill-rule="evenodd" clip-rule="evenodd" d="M11.0171 28.0474H25.8289V6.61562H11.0171L11.0171 28.0474Z" fill="white"/>
</g>
<path fill-rule="evenodd" clip-rule="evenodd" d="M42.047 21.5867C42.5226 21.5867 42.8591 21.5348 43.0588 21.4375C43.2572 21.3392 43.3534 21.1466 43.3534 20.865C43.3534 20.6423 43.228 20.4487 42.9709 20.2841C42.7139 20.1164 42.3271 19.93 41.8026 19.7176C41.396 19.5571 41.026 19.3916 40.6926 19.2207C40.3634 19.0468 40.0813 18.8438 39.8483 18.6025C39.6161 18.3624 39.4364 18.0743 39.3068 17.7389C39.1772 17.4096 39.1157 17.011 39.1157 16.5408C39.1157 15.6305 39.4364 14.9088 40.075 14.3797C40.7145 13.8527 41.5905 13.5835 42.7086 13.5835C43.2678 13.5835 43.8028 13.6363 44.3149 13.743C44.826 13.8465 45.2347 13.9646 45.5345 14.0836L45.082 16.2269C44.779 16.1162 44.4498 16.0189 44.0955 15.934C43.7411 15.8471 43.342 15.8015 42.9009 15.8015C42.0868 15.8015 41.6791 16.0438 41.6791 16.5232C41.6791 16.6339 41.697 16.7324 41.7325 16.8183C41.768 16.9053 41.8371 16.9881 41.9395 17.0678C42.047 17.1466 42.1872 17.2355 42.3689 17.3267C42.5496 17.423 42.7796 17.5223 43.0588 17.6353C43.6262 17.8589 44.0975 18.0764 44.4697 18.296C44.8426 18.5155 45.1353 18.7465 45.3517 19.0031C45.5669 19.2538 45.7196 19.5314 45.8052 19.8398C45.891 20.1474 45.9358 20.5025 45.9358 20.9075C45.9358 21.8673 45.5951 22.5931 44.9169 23.0839C44.2354 23.5728 43.2718 23.8191 42.0272 23.8191C41.2141 23.8191 40.5369 23.7477 39.9966 23.5976C39.4542 23.4516 39.08 23.3254 38.8711 23.2279L39.3068 20.9933C39.7469 21.1777 40.2046 21.3205 40.6666 21.4284C41.1347 21.5339 41.5905 21.5867 42.047 21.5867Z" fill="white"/>
<mask id="mask3_12550_445228" style="mask-type:alpha" maskUnits="userSpaceOnUse" x="38" y="13" width="8" height="11">
<path d="M40.0748 14.3798C40.7144 13.8527 41.5902 13.5835 42.7084 13.5835C43.2677 13.5835 43.8027 13.6363 44.3148 13.743C44.8258 13.8465 45.2344 13.9644 45.5344 14.0836L45.0819 16.2269C44.7787 16.1162 44.4497 16.0189 44.0952 15.934C43.7411 15.847 43.3417 15.8016 42.9008 15.8016C42.0865 15.8016 41.6791 16.0436 41.6791 16.5232C41.6791 16.6339 41.6967 16.7324 41.7322 16.8183C41.7679 16.9053 41.837 16.9881 41.9394 17.0678C42.0468 17.1466 42.1871 17.2355 42.3688 17.3267C42.5496 17.4229 42.7794 17.5225 43.0586 17.6353C43.6261 17.8589 44.0974 18.0764 44.4694 18.296C44.8426 18.5154 45.1352 18.7463 45.3516 19.0031C45.5668 19.2538 45.7194 19.5312 45.8051 19.8398C45.8909 20.1474 45.9356 20.5025 45.9356 20.9075C45.9356 21.8673 45.5949 22.5932 44.9168 23.0839C44.2353 23.5727 43.2718 23.8191 42.0271 23.8191C41.214 23.8191 40.5368 23.7477 39.9965 23.5976C39.454 23.4516 39.08 23.3254 38.8708 23.2279L39.3067 20.9933C39.7468 21.1779 40.2044 21.3205 40.6664 21.4284C41.1345 21.5338 41.5902 21.5867 42.0468 21.5867C42.5224 21.5867 42.859 21.5349 43.0586 21.4375C43.2572 21.3392 43.3533 21.1466 43.3533 20.865C43.3533 20.6423 43.2279 20.4487 42.9708 20.2841C42.7136 20.1164 42.3269 19.93 41.8024 19.7176C41.3957 19.5571 41.026 19.3916 40.6924 19.2207C40.3634 19.0468 40.0811 18.8438 39.8482 18.6025C39.616 18.3622 39.4363 18.0743 39.3067 17.7389C39.1771 17.4094 39.1155 17.011 39.1155 16.5408C39.1155 15.6307 39.4363 14.909 40.0748 14.3798Z" fill="white"/>
</mask>
<g mask="url(#mask3_12550_445228)">
<path fill-rule="evenodd" clip-rule="evenodd" d="M-125.614 50.8542L240.717 50.8542L240.717 -462.571H-125.614L-125.614 50.8542Z" fill="white"/>
<path fill-rule="evenodd" clip-rule="evenodd" d="M34.5099 28.1338H50.297V9.26903H34.5099V28.1338Z" fill="white"/>
</g>
<path fill-rule="evenodd" clip-rule="evenodd" d="M53.9495 17.9818C53.7165 18.9179 53.4709 19.8499 53.2086 20.7714C52.9472 21.6961 52.6692 22.626 52.3819 23.562H50.3576C50.1475 23.0443 49.9187 22.4293 49.6741 21.7157C49.4273 20.9992 49.1756 20.2216 48.9111 19.3756C48.6497 18.5326 48.3824 17.6401 48.1084 16.6958C47.8336 15.7556 47.5671 14.805 47.3121 13.843H50.0524C50.1433 14.2851 50.2467 14.7709 50.3585 15.2936C50.4694 15.8176 50.5864 16.3572 50.7087 16.9122C50.831 17.4652 50.9616 18.0211 51.0953 18.5823C51.2301 19.1436 51.3682 19.681 51.508 20.1979C51.6597 19.6563 51.8082 19.1033 51.9534 18.5368C52.0966 17.9695 52.2377 17.4123 52.3724 16.8646C52.5052 16.3178 52.6359 15.7867 52.7549 15.2751C52.8762 14.7645 52.9839 14.2851 53.079 13.843H54.9612C55.0573 14.2851 55.1585 14.7645 55.2766 15.2751C55.3916 15.7867 55.514 16.3178 55.6436 16.8646C55.769 17.4123 55.9059 17.9695 56.0428 18.5368C56.1838 19.1033 56.3281 19.6563 56.4776 20.1979C56.6186 19.681 56.7587 19.1436 56.8997 18.5823C57.0408 18.0211 57.1735 17.4652 57.2948 16.9122C57.4161 16.3572 57.5331 15.8176 57.646 15.2936C57.7578 14.7709 57.8592 14.2851 57.9521 13.843H60.6569C60.3999 14.805 60.1354 15.7556 59.8606 16.6958C59.5836 17.6401 59.3191 18.5326 59.0548 19.3756C58.7944 20.2216 58.5374 20.9992 58.2876 21.7157C58.0358 22.4293 57.8037 23.0443 57.5969 23.562H55.5726C55.2798 22.626 54.9956 21.6961 54.7156 20.7714C54.4365 19.8499 54.1836 18.9179 53.9495 17.9818Z" fill="white"/>
<mask id="mask4_12550_445228" style="mask-type:alpha" maskUnits="userSpaceOnUse" x="47" y="13" width="14" height="11">
<path d="M57.9521 13.843H60.6569C60.3999 14.805 60.1354 15.7556 59.8604 16.6956C59.5836 17.6401 59.3191 18.5328 59.0546 19.3756C58.7944 20.2216 58.5374 20.9992 58.2874 21.7157C58.0357 22.4293 57.8037 23.0441 57.5968 23.562H55.5725C55.2798 22.626 54.9956 21.6959 54.7156 20.7712C54.4365 19.8499 54.1836 18.9179 53.9495 17.9818C53.7163 18.9179 53.4707 19.8499 53.2086 20.7712C52.9472 21.6959 52.6692 22.626 52.3818 23.562H50.3574C50.1473 23.0441 49.9185 22.4293 49.6739 21.7157C49.4273 20.9992 49.1754 20.2216 48.9111 19.3756C48.6497 18.5328 48.3822 17.6401 48.1084 16.6956C47.8336 15.7556 47.5671 14.805 47.3121 13.843H50.0522C50.1433 14.2851 50.2467 14.7707 50.3585 15.2936C50.4694 15.8176 50.5862 16.3571 50.7087 16.912C50.8308 17.465 50.9616 18.0211 51.0953 18.5823C51.2302 19.1436 51.3682 19.681 51.508 20.1979C51.6595 19.6563 51.808 19.1031 51.9532 18.5368C52.0964 17.9695 52.2377 17.4123 52.3724 16.8646C52.5051 16.3177 52.6357 15.7865 52.7549 15.2751C52.8762 14.7645 52.9839 14.2851 53.0788 13.843H54.9612C55.0571 14.2851 55.1585 14.7645 55.2766 15.2751C55.3916 15.7865 55.514 16.3177 55.6435 16.8646C55.769 17.4123 55.9057 17.9695 56.0428 18.5368C56.1838 19.1031 56.3281 19.6563 56.4774 20.1979C56.6186 19.681 56.7585 19.1436 56.8997 18.5823C57.0408 18.0211 57.1735 17.465 57.2948 16.912C57.4161 16.3571 57.5331 15.8176 57.6459 15.2936C57.7578 14.7707 57.8592 14.2851 57.9521 13.843Z" fill="white"/>
</mask>
<g mask="url(#mask4_12550_445228)">
<path fill-rule="evenodd" clip-rule="evenodd" d="M-125.614 50.8542L240.717 50.8542L240.717 -462.571H-125.614L-125.614 50.8542Z" fill="white"/>
<path fill-rule="evenodd" clip-rule="evenodd" d="M42.9511 27.8767H65.018V9.52857H42.9511V27.8767Z" fill="white"/>
</g>
<path fill-rule="evenodd" clip-rule="evenodd" d="M62.495 23.5581H65.0911V13.8411H62.495V23.5581Z" fill="white"/>
<mask id="mask5_12550_445228" style="mask-type:alpha" maskUnits="userSpaceOnUse" x="62" y="13" width="4" height="11">
<path d="M62.495 23.5585V13.8415H65.0912V23.5585H62.495Z" fill="white"/>
</mask>
<g mask="url(#mask5_12550_445228)">
<path fill-rule="evenodd" clip-rule="evenodd" d="M-125.614 50.8544L240.717 50.8544L240.717 -462.571H-125.614L-125.614 50.8544Z" fill="white"/>
<path fill-rule="evenodd" clip-rule="evenodd" d="M58.1338 27.873H69.452V9.52693H58.1338V27.873Z" fill="white"/>
</g>
<path fill-rule="evenodd" clip-rule="evenodd" d="M67.156 11.4177L69.7541 10.93V13.8458H72.3252V16.1322H69.7541V19.5514C69.7541 20.1302 69.8502 20.5963 70.0415 20.9369C70.2327 21.2817 70.6204 21.4547 71.2006 21.4547C71.4817 21.4547 71.7701 21.4298 72.0648 21.3728C72.3625 21.3168 72.6323 21.2372 72.8779 21.1409L73.2427 23.2844C72.928 23.4209 72.5779 23.537 72.1966 23.6363C71.8107 23.7336 71.3438 23.7833 70.7834 23.7833C70.0729 23.7833 69.4866 23.682 69.0215 23.4768C68.5554 23.277 68.1833 22.9944 67.9054 22.6277C67.6273 22.2674 67.433 21.8232 67.3213 21.3086C67.2083 20.7899 67.156 20.2162 67.156 19.5896V11.4177Z" fill="white"/>
<mask id="mask6_12550_445228" style="mask-type:alpha" maskUnits="userSpaceOnUse" x="67" y="10" width="7" height="14">
<path d="M67.156 11.4177L69.7539 10.93V13.8458H72.325V16.1322H69.7539V19.5514C69.7539 20.1302 69.8502 20.5961 70.0415 20.9369C70.2327 21.2817 70.6204 21.4545 71.2004 21.4545C71.4815 21.4545 71.7701 21.4298 72.0648 21.3728C72.3625 21.3167 72.6323 21.2372 72.8777 21.1409L73.2425 23.2843C72.928 23.4209 72.5777 23.537 72.1966 23.6363C71.8107 23.7336 71.3438 23.7833 70.7834 23.7833C70.0729 23.7833 69.4864 23.682 69.0215 23.4768C68.5553 23.2769 68.1833 22.9944 67.9054 22.6279C67.6273 22.2674 67.433 21.8233 67.3211 21.3086C67.2083 20.7899 67.156 20.216 67.156 19.5897V11.4177Z" fill="white"/>
</mask>
<g mask="url(#mask6_12550_445228)">
<path fill-rule="evenodd" clip-rule="evenodd" d="M-125.614 50.8541L240.717 50.8541L240.717 -462.571H-125.614L-125.614 50.8541Z" fill="white"/>
<path fill-rule="evenodd" clip-rule="evenodd" d="M62.7947 28.0981H77.6037V6.61563H62.7947V28.0981Z" fill="white"/>
</g>
<path fill-rule="evenodd" clip-rule="evenodd" d="M74.1608 18.7046C74.1608 18.0014 74.2686 17.3388 74.4838 16.7176C74.699 16.0942 75.0095 15.5537 75.4162 15.0908C75.8236 14.628 76.3169 14.2634 76.9 13.9911C77.48 13.723 78.1426 13.5842 78.8868 13.5842C79.3748 13.5842 79.8232 13.6329 80.2307 13.724C80.6385 13.8182 81.0356 13.9498 81.4169 14.1205L80.8778 16.319C80.6322 16.2215 80.3655 16.1367 80.073 16.06C79.7824 15.9875 79.4553 15.9493 79.0959 15.9493C78.3288 15.9493 77.7549 16.2029 77.3797 16.7082C76.9982 17.2146 76.8122 17.8784 76.8122 18.7046C76.8122 19.5774 76.9888 20.2556 77.3464 20.7362C77.6975 21.2156 78.3183 21.457 79.2013 21.457C79.5159 21.457 79.8514 21.4247 80.214 21.3637C80.5736 21.3015 80.9048 21.2042 81.21 21.0676L81.5739 23.3229C81.2705 23.4585 80.8944 23.5724 80.4409 23.6727C79.9852 23.7704 79.4865 23.8209 78.9411 23.8209C78.1039 23.8209 77.3809 23.6863 76.7777 23.4222C76.1739 23.1582 75.6752 22.7977 75.2864 22.3422C74.8945 21.8856 74.6124 21.3472 74.4317 20.7258C74.2508 20.1036 74.1608 19.4286 74.1608 18.7046Z" fill="white"/>
<mask id="mask7_12550_445228" style="mask-type:alpha" maskUnits="userSpaceOnUse" x="74" y="13" width="8" height="11">
<path d="M76.9002 13.9911C77.4803 13.7229 78.1429 13.5842 78.887 13.5842C79.375 13.5842 79.8234 13.6327 80.2309 13.7238C80.6386 13.8182 81.0358 13.9496 81.4172 14.1205L80.8781 16.3188C80.6323 16.2215 80.3658 16.1367 80.0731 16.06C79.7825 15.9873 79.4555 15.9491 79.0959 15.9491C78.329 15.9491 77.7551 16.2029 77.3799 16.7082C76.9984 17.2145 76.8124 17.8782 76.8124 18.7046C76.8124 19.5774 76.9892 20.2556 77.3466 20.7362C77.6977 21.2156 78.3184 21.457 79.2014 21.457C79.5162 21.457 79.8516 21.4247 80.2143 21.3637C80.5738 21.3015 80.9051 21.2042 81.2101 21.0674L81.5739 23.3229C81.2709 23.4585 80.8947 23.5722 80.441 23.6727C79.9855 23.7702 79.487 23.8209 78.9414 23.8209C78.104 23.8209 77.3811 23.6862 76.778 23.422C76.1741 23.158 75.6754 22.7977 75.2865 22.3423C74.8949 21.8856 74.6127 21.3472 74.4319 20.7258C74.251 20.1036 74.161 19.4284 74.161 18.7046C74.161 18.0014 74.2689 17.3388 74.4841 16.7176C74.6993 16.0942 75.0098 15.5536 75.4162 15.0906C75.8239 14.6278 76.3171 14.2634 76.9002 13.9911Z" fill="white"/>
</mask>
<g mask="url(#mask7_12550_445228)">
<path fill-rule="evenodd" clip-rule="evenodd" d="M-125.614 50.8541L240.717 50.8541L240.717 -462.571H-125.614L-125.614 50.8541Z" fill="white"/>
<path fill-rule="evenodd" clip-rule="evenodd" d="M69.7999 28.1357H85.9349V9.26981H69.7999V28.1357Z" fill="white"/>
</g>
<path fill-rule="evenodd" clip-rule="evenodd" d="M83.2534 23.5585V11.4143L85.8525 10.9308V13.8819C86.0259 13.8208 86.2486 13.7618 86.5246 13.706C86.7962 13.651 87.0627 13.622 87.3179 13.622C88.0608 13.622 88.6784 13.7307 89.1737 13.9451C89.6671 14.1605 90.0652 14.466 90.3599 14.8604C90.6589 15.253 90.8658 15.723 90.9903 16.2625C91.1103 16.806 91.1708 17.4109 91.1708 18.0757V23.5585H88.5727V18.4059C88.5727 17.5195 88.4652 16.892 88.251 16.5203C88.0356 16.1547 87.6365 15.9695 87.0564 15.9695C86.8203 15.9695 86.6048 15.9913 86.4001 16.0327C86.1973 16.0762 86.0146 16.1237 85.8525 16.1725V23.5585H83.2534Z" fill="white"/>
<mask id="mask8_12550_445228" style="mask-type:alpha" maskUnits="userSpaceOnUse" x="83" y="10" width="9" height="14">
<path d="M83.2534 11.4143L85.8523 10.9308V13.8821C86.0259 13.8208 86.2486 13.7618 86.5246 13.706C86.7962 13.651 87.0627 13.6221 87.3178 13.6221C88.0608 13.6221 88.6785 13.7309 89.1738 13.9451C89.6671 14.1607 90.0654 14.466 90.3599 14.8606C90.6587 15.253 90.8659 15.723 90.9903 16.2627C91.1103 16.8061 91.1708 17.4109 91.1708 18.0759V23.5585H88.5729V18.4059C88.5729 17.5196 88.465 16.892 88.251 16.5203C88.0356 16.1548 87.6365 15.9695 87.0564 15.9695C86.8203 15.9695 86.6048 15.9913 86.4001 16.0328C86.1973 16.0762 86.0146 16.1237 85.8523 16.1725V23.5585H83.2534V11.4143Z" fill="white"/>
</mask>
<g mask="url(#mask8_12550_445228)">
<path fill-rule="evenodd" clip-rule="evenodd" d="M-125.614 50.8544L240.717 50.8544L240.717 -462.571H-125.614L-125.614 50.8544Z" fill="white"/>
<path fill-rule="evenodd" clip-rule="evenodd" d="M78.8924 27.8733H95.532V6.61639H78.8924V27.8733Z" fill="white"/>
</g>
<path fill-rule="evenodd" clip-rule="evenodd" d="M4.89319 23.5616L4.89319 14.7559C4.89319 14.7559 6.19953 13.651 9.05681 13.651C11.6569 13.651 13.0847 15.0273 13.0847 18.056V23.5616H10.4877V18.056C10.4877 16.1269 9.57622 15.9933 8.79761 15.9933C8.01901 15.9933 7.49756 16.4033 7.49756 16.4033V23.5616H4.89319Z" fill="white"/>
<mask id="mask9_12550_445228" style="mask-type:alpha" maskUnits="userSpaceOnUse" x="4" y="13" width="10" height="11">
<path d="M4.89319 14.7559C4.89319 14.7559 6.19953 13.651 9.05681 13.651C11.6569 13.651 13.0846 15.0271 13.0846 18.0562V23.5616H10.4877V18.0562C10.4877 16.1267 9.57623 15.9933 8.79761 15.9933C8.01901 15.9933 7.49756 16.4035 7.49756 16.4035V23.5616H4.89319L4.89319 14.7559Z" fill="white"/>
</mask>
<g mask="url(#mask9_12550_445228)">
<path fill-rule="evenodd" clip-rule="evenodd" d="M-125.614 50.8541L240.717 50.8541L240.717 -462.571H-125.614L-125.614 50.8541Z" fill="white"/>
<path fill-rule="evenodd" clip-rule="evenodd" d="M0.532227 27.8763H17.4456V9.33672H0.532227L0.532227 27.8763Z" fill="white"/>
</g>
<path fill-rule="evenodd" clip-rule="evenodd" d="M0 23.5616L0 11.4154L2.60014 10.9307L2.60014 23.5616H0Z" fill="white"/>
<mask id="mask10_12550_445228" style="mask-type:alpha" maskUnits="userSpaceOnUse" x="0" y="10" width="3" height="14">
<path d="M0 11.4155L2.60014 10.9307L2.60014 23.5616H0L0 11.4155Z" fill="white"/>
</mask>
<g mask="url(#mask10_12550_445228)">
<path fill-rule="evenodd" clip-rule="evenodd" d="M-125.614 50.8541L240.717 50.8541L240.717 -462.571H-125.614L-125.614 50.8541Z" fill="white"/>
<path fill-rule="evenodd" clip-rule="evenodd" d="M-4.36121 27.8763H6.96123L6.96123 6.61642H-4.36121L-4.36121 27.8763Z" fill="white"/>
</g>
<path fill-rule="evenodd" clip-rule="evenodd" d="M30.7031 19.4004H24.8547C24.8547 19.4004 24.9853 21.4641 27.5824 21.4641C28.8826 21.4641 30.1827 21.0529 30.1827 21.0529L30.4429 23.2574C30.4429 23.2574 29.1439 23.8032 27.3254 23.8032C24.7241 23.8032 22.3852 22.429 22.3852 18.5762C22.3852 15.5463 24.2037 13.6224 26.8029 13.6224C30.7031 13.6224 30.9643 17.7456 30.7031 19.4004ZM26.6754 15.5463C24.9853 15.5463 24.8547 17.4722 24.8547 17.4722H28.4916C28.4916 17.4722 28.3642 15.5463 26.6754 15.5463Z" fill="white"/>
<mask id="mask11_12550_445228" style="mask-type:alpha" maskUnits="userSpaceOnUse" x="22" y="13" width="9" height="11">
<path d="M22.3852 18.576C22.3852 15.5461 24.2037 13.6222 26.8028 13.6222C30.7029 13.6222 30.9642 17.7456 30.7029 19.4003H24.8547C24.8547 19.4003 24.9853 21.4639 27.5822 21.4639C28.8824 21.4639 30.1825 21.0528 30.1825 21.0528L30.4427 23.2573C30.4427 23.2573 29.1437 23.8032 27.3252 23.8032C24.7241 23.8032 22.3852 22.429 22.3852 18.576ZM26.6752 15.5461C24.9853 15.5461 24.8547 17.4722 24.8547 17.4722H28.4916C28.4916 17.4722 28.3641 15.5461 26.6752 15.5461Z" fill="white"/>
</mask>
<g mask="url(#mask11_12550_445228)">
<path fill-rule="evenodd" clip-rule="evenodd" d="M-125.614 50.8542L240.717 50.8542L240.717 -462.571H-125.614L-125.614 50.8542Z" fill="white"/>
<path fill-rule="evenodd" clip-rule="evenodd" d="M18.024 28.1177H35.1368V9.30772H18.024V28.1177Z" fill="white"/>
</g>
<mask id="mask12_12550_445228" style="mask-type:alpha" maskUnits="userSpaceOnUse" x="94" y="9" width="18" height="22">
<path d="M94.6149 10.9331C94.6149 10.346 102.09 9.07896 107.104 9.07896C109.278 9.07896 110.989 9.31725 111.426 9.95243C113.684 12.9015 97.7921 31.4035 96.468 30.8422C95.406 30.5616 104.94 18.7851 103.351 14.0168C102.558 11.4954 94.6149 11.7758 94.6149 10.9331Z" fill="white"/>
</mask>
<g mask="url(#mask12_12550_445228)">
<path fill-rule="evenodd" clip-rule="evenodd" d="M90.2541 35.1692H116.007V4.76436H90.2541V35.1692Z" fill="#ED342B"/>
</g>
<mask id="mask13_12550_445228" style="mask-type:alpha" maskUnits="userSpaceOnUse" x="108" y="-1" width="7" height="9">
<path d="M108.117 3.64355C108.117 1.62961 109.659 -0.000204086 111.559 -0.000204086C113.46 -0.000204086 115 1.62961 115 3.64355C115 5.65852 113.46 7.28833 111.559 7.28833C109.659 7.28833 108.117 5.65852 108.117 3.64355Z" fill="white"/>
</mask>
<g mask="url(#mask13_12550_445228)">
<path fill-rule="evenodd" clip-rule="evenodd" d="M103.756 11.6034L119.361 11.6034V-4.31444L103.756 -4.31444V11.6034Z" fill="#ED342B"/>
</g>
<path d="M70.7838 32.1608V26.3973H71.513V32.1608H70.7838ZM73.1796 32.1608V26.3973H74.8928C75.2852 26.3973 75.6279 26.4442 75.9207 26.5379C76.2194 26.6316 76.4508 26.781 76.6148 26.986C76.7847 27.191 76.8696 27.4633 76.8696 27.8031C76.8696 28.0901 76.7964 28.3507 76.6499 28.585C76.5094 28.8134 76.3014 28.9716 76.0262 29.0594V29.0946C76.3717 29.159 76.6529 29.3054 76.8696 29.5338C77.0922 29.7623 77.2034 30.0756 77.2034 30.4739C77.2034 30.8488 77.1097 31.1621 76.9223 31.414C76.7407 31.6658 76.4859 31.8533 76.1579 31.9763C75.8299 32.0993 75.4492 32.1608 75.0158 32.1608H73.1796ZM73.9088 28.8486H74.761C75.253 28.8486 75.6074 28.7636 75.8241 28.5938C76.0408 28.4239 76.1492 28.1926 76.1492 27.8997C76.1492 27.5658 76.0349 27.3286 75.8065 27.1881C75.5839 27.0475 75.2472 26.9772 74.7962 26.9772H73.9088V28.8486ZM73.9088 31.5809H74.9104C75.4082 31.5809 75.7948 31.4901 76.0701 31.3086C76.3454 31.1211 76.483 30.8341 76.483 30.4476C76.483 30.0903 76.3454 29.8296 76.0701 29.6656C75.8007 29.4958 75.4141 29.4108 74.9104 29.4108H73.9088V31.5809ZM79.3462 32.2662C78.9889 32.2662 78.6902 32.1608 78.4501 31.9499C78.2158 31.7332 78.0986 31.4345 78.0986 31.0538C78.0986 30.5852 78.3066 30.2279 78.7224 29.9819C79.1441 29.7301 79.8089 29.5543 80.7168 29.4548C80.7168 29.2732 80.6904 29.1004 80.6377 28.9364C80.5908 28.7724 80.503 28.6406 80.3741 28.5411C80.2511 28.4356 80.0725 28.3829 79.8382 28.3829C79.5922 28.3829 79.3608 28.4298 79.1441 28.5235C78.9274 28.6172 78.7341 28.7226 78.5643 28.8398L78.2831 28.339C78.4823 28.2101 78.7253 28.0871 79.0123 27.97C79.3052 27.847 79.6215 27.7855 79.9612 27.7855C80.4825 27.7855 80.8603 27.9466 81.0946 28.2687C81.3288 28.585 81.446 29.0096 81.446 29.5426V32.1608H80.8486L80.7871 31.6512H80.7607C80.5616 31.8152 80.3419 31.9587 80.1018 32.0817C79.8675 32.2047 79.6156 32.2662 79.3462 32.2662ZM79.5571 31.6863C79.7621 31.6863 79.9553 31.6366 80.1369 31.537C80.3185 31.4374 80.5118 31.2968 80.7168 31.1153V29.9292C80.0081 30.0171 79.5102 30.1488 79.2232 30.3246C78.9421 30.5003 78.8015 30.7258 78.8015 31.0011C78.8015 31.2412 78.8747 31.4169 79.0211 31.5282C79.1676 31.6336 79.3462 31.6863 79.5571 31.6863ZM83.8612 32.2662C83.5039 32.2662 83.2052 32.1608 82.9651 31.9499C82.7308 31.7332 82.6137 31.4345 82.6137 31.0538C82.6137 30.5852 82.8216 30.2279 83.2374 29.9819C83.6592 29.7301 84.3239 29.5543 85.2318 29.4548C85.2318 29.2732 85.2054 29.1004 85.1527 28.9364C85.1059 28.7724 85.018 28.6406 84.8892 28.5411C84.7662 28.4356 84.5875 28.3829 84.3532 28.3829C84.1072 28.3829 83.8759 28.4298 83.6592 28.5235C83.4424 28.6172 83.2492 28.7226 83.0793 28.8398L82.7982 28.339C82.9973 28.2101 83.2404 28.0871 83.5274 27.97C83.8202 27.847 84.1365 27.7855 84.4762 27.7855C84.9975 27.7855 85.3753 27.9466 85.6096 28.2687C85.8439 28.585 85.961 29.0096 85.961 29.5426V32.1608H85.3636L85.3021 31.6512H85.2757C85.0766 31.8152 84.8569 31.9587 84.6168 32.0817C84.3825 32.2047 84.1307 32.2662 83.8612 32.2662ZM84.0721 31.6863C84.2771 31.6863 84.4704 31.6366 84.6519 31.537C84.8335 31.4374 85.0268 31.2968 85.2318 31.1153V29.9292C84.5231 30.0171 84.0252 30.1488 83.7382 30.3246C83.4571 30.5003 83.3165 30.7258 83.3165 31.0011C83.3165 31.2412 83.3897 31.4169 83.5362 31.5282C83.6826 31.6336 83.8612 31.6863 84.0721 31.6863ZM89.0616 32.2662C88.6574 32.2662 88.2826 32.1901 87.937 32.0378C87.5914 31.8796 87.2927 31.6717 87.0408 31.414L87.4801 30.9044C87.6851 31.1211 87.9253 31.2968 88.2006 31.4316C88.4817 31.5604 88.7716 31.6248 89.0703 31.6248C89.4511 31.6248 89.7468 31.5399 89.9577 31.3701C90.1686 31.1943 90.274 30.9659 90.274 30.6848C90.274 30.4856 90.2301 30.3275 90.1422 30.2103C90.0602 30.0932 89.946 29.9936 89.7996 29.9116C89.659 29.8296 89.4979 29.7476 89.3163 29.6656L88.4905 29.3054C88.3089 29.2293 88.1273 29.1297 87.9458 29.0067C87.7701 28.8837 87.6207 28.7256 87.4977 28.5323C87.3806 28.339 87.322 28.1018 87.322 27.8206C87.322 27.5278 87.3981 27.2671 87.5504 27.0387C87.7086 26.8044 87.9253 26.6228 88.2006 26.494C88.4758 26.3593 88.7863 26.2919 89.1318 26.2919C89.4774 26.2919 89.7966 26.3593 90.0895 26.494C90.3823 26.6228 90.6313 26.7927 90.8363 27.0036L90.4409 27.478C90.2652 27.3081 90.069 27.1763 89.8523 27.0826C89.6414 26.9831 89.4013 26.9333 89.1318 26.9333C88.8097 26.9333 88.5491 27.0094 88.3499 27.1617C88.1566 27.314 88.06 27.519 88.06 27.7767C88.06 27.9583 88.1068 28.1106 88.2006 28.2336C88.3001 28.3507 88.4231 28.4473 88.5696 28.5235C88.716 28.5996 88.8653 28.6699 89.0176 28.7343L89.8347 29.0858C90.0573 29.1795 90.2564 29.2937 90.4321 29.4284C90.6137 29.5573 90.7572 29.7183 90.8626 29.9116C90.9681 30.0991 91.0208 30.3363 91.0208 30.6233C91.0208 30.9278 90.9417 31.2061 90.7836 31.4579C90.6254 31.7039 90.3999 31.9001 90.1071 32.0466C89.8142 32.193 89.4657 32.2662 89.0616 32.2662Z" fill="white"/>
</svg>
